<?xml version="1.0" encoding="UTF-8"?>
<!DOCTYPE svg PUBLIC "-//W3C//DTD SVG 1.1//EN" "http://www.w3.org/Graphics/SVG/1.1/DTD/svg11.dtd">
<!-- Creator: CorelDRAW 2020 (64-Bit) -->
<svg xmlns="http://www.w3.org/2000/svg" xml:space="preserve" width="1333px" height="562px" version="1.1" style="shape-rendering:geometricPrecision; text-rendering:geometricPrecision; image-rendering:optimizeQuality; fill-rule:evenodd; clip-rule:evenodd"
viewBox="0 0 1347.1 567.8"
 xmlns:xlink="http://www.w3.org/1999/xlink"
 xmlns:xodm="http://www.corel.com/coreldraw/odm/2003">
 <defs>
  <style type="text/css">
   <![CDATA[
    .str0 {stroke:#006B3F;stroke-width:4.21;stroke-miterlimit:3.86371}
    .str1 {stroke:#2B2A29;stroke-width:1.19;stroke-miterlimit:3.86369}
    .fil2 {fill:none;fill-rule:nonzero}
    .fil5 {fill:#4D4D4D}
    .fil1 {fill:#006B3F;fill-rule:nonzero}
    .fil4 {fill:#2B2A29;fill-rule:nonzero}
    .fil0 {fill:#7FB59F;fill-rule:nonzero}
    .fil3 {fill:#B2D3C5;fill-rule:nonzero}
   ]]>
  </style>
 </defs>
 <g id="Слой_x0020_1">
  <metadata id="CorelCorpID_0Corel-Layer"/>
  <path class="fil0" d="M62.97 73.23c207.22,-65.67 589.34,-28.48 591.09,-16.8 2,13.41 -46.96,11.71 -228.98,137.99 -14.34,9.95 -15.37,-13.87 -17.57,-7.39 -4.24,12.48 -7.8,8.49 -50.66,3.15 -11.63,-1.45 -31.99,16.96 -61.44,2.54 -20.98,-10.28 -51.26,28 -108.46,21.21 -59.6,-7.07 -2.54,-7.63 -64.23,6.79 -44.12,10.31 27.2,-8.77 -70.53,16.72 -19.51,5.09 -35.47,16.61 -35.47,-8.49 0,-25.11 32.13,-151.24 46.25,-155.72z"/>
  <path class="fil1" d="M16.41 259.7c26.99,-7.41 66.26,-17.99 87.89,-39.62 19.88,-4.41 35.41,7.84 55.32,-8.62 37.14,8.62 84.61,1.73 123.47,-17.23 26.93,-3.65 50.15,15.51 75.22,1.73 29.85,-3.9 54.37,-3.45 86.33,6.89 2.21,0.71 16.47,3.45 26.8,-10.34 8.96,-11.95 158.96,23.28 180.51,1.72 0.67,-0.66 55.32,32.21 55.32,20.68 0,-11.52 258.06,49.84 311.83,72.55 140.78,59.47 91.69,32.63 -76.76,39.62 -182.31,7.56 -741.43,-4.48 -914.29,27.95 -43.01,8.07 -21.92,-92.51 -11.64,-95.33z"/>
  <path class="fil2 str0" d="M16.41 259.7c26.99,-7.41 66.26,-17.99 87.89,-39.62 19.88,-4.41 35.41,7.84 55.32,-8.62 37.14,8.62 84.61,1.73 123.47,-17.23 26.93,-3.65 50.15,15.51 75.22,1.73 29.85,-3.9 54.37,-3.45 86.33,6.89 2.21,0.71 16.47,3.45 26.8,-10.34 8.96,-11.95 158.96,23.28 180.51,1.72 0.67,-0.66 55.32,32.21 55.32,20.68 0,-11.52 258.06,49.84 311.83,72.55 140.78,59.47 91.69,32.63 -76.76,39.62 -182.31,7.56 -741.43,-4.48 -914.29,27.95 -43.01,8.07 -21.92,-92.51 -11.64,-95.33z"/>
  <path class="fil3" d="M746.11 28.47c55.12,-26.53 109.28,-16.7 182.09,-16.64 1.8,19.52 77.45,25.88 135.61,33.69 148.93,51.43 203.32,27.53 256.75,73.38 24.8,21.3 1.83,128.69 -1.71,208.48 -1.77,10.66 -160.78,24.8 -211,-3.63 -117.63,-66.59 -439.44,-147.7 -562.14,-124.35 -6.58,1.26 -60.25,-17.19 -70.82,-8.61 -22.41,18.18 -32.02,6.54 -45.75,6.89 -43.75,1.11 302.58,-162.28 316.97,-169.21z"/>
  <path class="fil4" d="M84.08 44.35c-12.43,1.87 -48.09,30.9 -5.57,24.86 37.56,-5.33 172.62,-48.08 445.39,-29.51 30.43,2.08 84.67,9.68 74.25,6.58 -213.6,-63.55 -449.48,-11.68 -514.07,-1.93z"/>
  <path class="fil4" d="M31.55 228.49c-21.46,4.44 -43.76,37.24 -2.3,26.06 47.94,-12.92 61.9,-12.65 73.41,-31.81 16.1,10.73 48.97,-0.82 55.87,-11.51 12.27,8.39 72.31,23.83 117.51,-11.51 20.92,-2.88 20.87,18.24 36.98,-1.64 18.35,6.13 17.91,27.34 39.38,2.08 19.87,-0.96 45.25,20.93 58.4,-5.37 15.61,24.66 33.69,27.11 64.09,1.64 17.9,0.76 139.69,40.27 184.89,3.29 14.44,1.52 13.96,23.78 13.96,18.08 0,-5.69 201.05,30.14 247.34,39.43 29.9,6.01 162.91,57.49 153.65,51.78 -109.29,-67.38 -269.53,-93.11 -396.06,-107.65 -14.23,-7.09 -10.52,-17.55 -25.46,-18.89 -11.51,32.05 -163.66,1.05 -179.96,0 -18.9,18.89 -54.23,23.83 -69.03,-4.93 4.94,32.05 -35.5,7.16 -55.66,7.33 -19.16,17.59 -26.5,4.78 -37.19,-8.98 -5.37,17.59 -24.76,7.51 -36.98,-1.64 -18.89,35.34 -112.68,45.85 -114.98,22.85 -5.37,18.4 -49.74,26.79 -59.71,8.43 3.07,13.03 -48.02,18.79 -68.15,22.96z"/>
  <path class="fil4" d="M470.27 162.2c23.38,-16.71 184.61,-110.37 283.76,-147.86 6.98,-2.64 6.34,-14.16 28.53,-3.07 1.12,0.56 19.33,-0.7 38.16,-4.6 16,-3.33 48.48,2.7 67.65,-3.49 20.72,-6.69 48.67,1.52 53.55,3.29 13.27,4.8 7.63,5.29 9.65,13.58 1.12,4.64 90.5,-0.75 145.36,16.82 25.47,8.16 134.76,30.62 171.6,39.55 45.26,10.96 54.78,22 59.21,30.62 13.81,26.88 -12.92,13.22 -12.92,13.22 -11.24,-27.16 -97.6,-38.32 -97.6,-38.32 -53.5,-10.4 -65.04,-7.8 -119.73,-25.44 -61.44,-19.81 -162.51,-24.44 -161.35,-37.31 0.38,-4.15 -40.38,-11.81 -62.59,-4.63 -10.73,3.47 -25.93,-3.98 -50.2,-1.16 -18.05,2.11 -38.12,2.88 -60.28,9.41 -40.48,11.94 -300.9,145.17 -292.8,139.39z"/>
  <path class="fil2 str1" d="M470.27 162.2c23.38,-16.71 184.61,-110.37 283.76,-147.86 6.98,-2.64 6.34,-14.16 28.53,-3.07 1.12,0.56 19.33,-0.7 38.16,-4.6 16,-3.33 48.48,2.7 67.65,-3.49 20.72,-6.69 48.67,1.52 53.55,3.29 13.27,4.8 7.63,5.29 9.65,13.58 1.12,4.64 90.5,-0.75 145.36,16.82 25.47,8.16 134.76,30.62 171.6,39.55 45.26,10.96 54.78,22 59.21,30.62 13.81,26.88 -12.92,13.22 -12.92,13.22 -11.24,-27.16 -97.6,-38.32 -97.6,-38.32 -53.5,-10.4 -65.04,-7.8 -119.73,-25.44 -61.44,-19.81 -162.51,-24.44 -161.35,-37.31 0.38,-4.15 -40.38,-11.81 -62.59,-4.63 -10.73,3.47 -25.93,-3.98 -50.2,-1.16 -18.05,2.11 -38.12,2.88 -60.28,9.41 -40.48,11.94 -300.9,145.17 -292.8,139.39z"/>
  <path class="fil4" d="M91.16 411.11l-88.35 0 0 3.9c10.75,0.62 13.71,2.96 13.71,11.06l0 75.42c0,8.1 -2.18,9.81 -13.71,11.06l0 3.9 56.1 0 0 -3.9c-14.34,-0.62 -17.14,-2.49 -17.14,-11.06l0 -36.31c15.89,0.31 21.66,6.08 23.84,24.15l3.89 0 0 -52.66 -3.89 0c-2.81,17.76 -8.26,23.21 -23.84,23.21l0 -36.14c0,-5.77 2.02,-7.33 9.97,-7.33 14.33,0 23.53,2.65 28.36,8.11 3.43,3.89 5.14,8.1 7.32,17.91l3.74 0 0 -31.32zm57.81 107.36c6.7,-2.34 10.44,-2.96 20.57,-4.05l9.66 -1.09 0 -3.58c-6.86,-0.32 -8.73,-2.34 -8.73,-9.04l0 -56.09 -31.32 0 0 3.73c7.79,0.63 9.66,2.5 9.66,9.2l0 44.09c-5.14,5.15 -8.41,6.86 -12.78,6.86 -6.38,0 -8.72,-3.12 -8.72,-11.06l0 -52.82 -29.29 0 0 3.73c6.38,1.25 7.63,2.65 7.63,9.2l0 39.26c0,13.72 7.79,21.82 20.72,21.82 8.11,0 13.56,-2.5 22.6,-10.29l0 10.13zm-28.67 -105.8c-5.3,0 -9.97,4.68 -9.97,9.97 0,5.46 4.51,10.13 9.97,10.13 5.61,0 10.13,-4.36 10.13,-9.81 0,-5.61 -4.68,-10.29 -10.13,-10.29zm32.56 0c-5.14,0 -9.81,4.68 -9.81,9.82 0,5.76 4.36,10.28 9.81,10.28 5.77,0 10.29,-4.36 10.29,-9.81 0,-5.61 -4.68,-10.29 -10.29,-10.29zm63.26 31.95l-29.45 0 0 3.73c6.7,0.94 8.42,2.96 8.42,9.2l0 45.81c0,6.39 -1.56,8.1 -8.42,9.35l0 3.74 41.45 0 0 -3.74c-9.5,-0.63 -11.37,-2.65 -11.37,-12.31l0 -29.45c0,-8.1 4.36,-14.8 9.5,-14.8 1.25,0 2.65,1.09 4.36,3.58 2.96,4.21 5.3,5.61 9.35,5.61 5.77,0 9.82,-4.36 9.82,-10.44 0,-7.01 -5.3,-12.16 -12.62,-12.16 -7.79,0 -13.71,4.21 -21.04,14.65l0 -12.77zm85.24 21.03l0 -22.59 -3.43 0c-0.94,2.33 -1.87,3.11 -3.74,3.11 -0.94,0 -2.49,-0.31 -4.99,-1.09 -5.14,-1.71 -8.72,-2.34 -12.15,-2.34 -14.18,0 -24.46,9.67 -24.46,22.75 0,10.29 6.38,17.46 22.12,24.16 10.6,4.67 14.96,8.57 14.96,13.55 0,6.08 -4.68,10.13 -11.69,10.13 -10.9,0 -18.07,-7.01 -21.34,-20.57l-4.37 0 0 25.71 3.9 0c1.71,-3.27 2.65,-4.36 4.05,-4.36 0.78,0 2.03,0.31 3.58,0.93 4.21,1.87 12.47,3.59 16.83,3.59 14.18,0 24,-9.66 24,-23.69 0,-11.06 -6.08,-17.76 -21.5,-24.3 -10.6,-4.52 -14.96,-8.42 -14.96,-13.72 0,-5.14 4.36,-9.03 10.28,-9.03 4.05,0 8.26,1.71 11.69,4.98 3.27,3.12 4.98,5.92 7.32,12.78l3.9 0zm55.15 -21.03l-14.64 0 0 -26.34 -3.9 0c-9.5,13.4 -15.74,20.41 -25.86,28.98l0 4.21 8.1 0 0 50.49c0,10.12 6.7,16.36 17.45,16.36 10.44,0 16.67,-4.68 23.06,-17.46l-3.89 -1.71c-3.12,5.92 -5.61,8.1 -8.89,8.1 -4.36,0 -6.07,-2.65 -6.07,-8.88l0 -46.9 14.64 0 0 -6.85zm67 52.35c-6.23,7.63 -11.06,10.44 -17.76,10.44 -6.08,0 -10.59,-2.81 -13.87,-8.26 -2.8,-4.98 -4.05,-10.13 -4.67,-20.88l39.27 0c-0.94,-13.09 -3.28,-20.41 -8.26,-26.33 -5.14,-6.08 -12.31,-9.2 -20.88,-9.2 -19.48,0 -32.57,15.43 -32.57,38.18 0,22.75 12.78,37.71 32.1,37.71 12.62,0 20.26,-4.99 30.38,-19.48l-3.74 -2.18zm-37.08 -24.46c0.47,-18.7 3.27,-24.93 10.91,-24.93 4.36,0 7.32,2.49 8.57,7.32 0.78,2.96 1.09,7.32 1.4,15.27l0 2.34 -20.88 0zm76.66 -27.89l-29.76 0 0 3.73c6.86,1.1 8.26,2.65 8.26,9.2l0 45.81c0,6.54 -1.25,7.94 -8.26,9.35l0 3.74 37.55 0 0 -3.74c-5.76,-0.78 -7.63,-3.12 -7.63,-8.89l0 -41.6c0,-0.62 1.09,-2.18 2.65,-3.58 3.42,-3.59 7.16,-5.45 10.75,-5.45 5.45,0 8.1,4.2 8.1,12.93l0 37.7c0,5.77 -2.03,8.26 -7.32,8.89l0 3.74 36.61 0 0 -3.74c-6.07,-0.47 -7.63,-2.34 -7.63,-8.89l0 -39.1c0,-13.41 -8.26,-21.98 -21.04,-21.98 -9.34,0 -16.51,4.37 -22.28,13.56l0 -11.68zm86.48 -33.51l-30.23 0 0 3.74c7.17,1.41 8.57,2.81 8.57,9.04l0 94.58 1.87 0 12.31 -8.72c7.17,6.38 12.78,8.88 20.57,8.88 20.72,0 35.21,-16.21 35.21,-39.42 0,-21.51 -12,-36.47 -29.29,-36.47 -7.48,0 -13.25,2.65 -19.01,8.73l0 -40.36zm0 49.24c2.65,-6.7 5.76,-9.19 10.91,-9.19 9.66,0 14.49,10.44 14.49,30.85 0,21.5 -4.68,31.63 -14.65,31.63 -6.54,0 -10.75,-4.83 -10.75,-12.31l0 -40.98zm116.39 36.62c-6.23,7.63 -11.06,10.44 -17.76,10.44 -6.08,0 -10.6,-2.81 -13.87,-8.26 -2.8,-4.98 -4.05,-10.13 -4.67,-20.88l39.26 0c-0.93,-13.09 -3.27,-20.41 -8.25,-26.33 -5.15,-6.08 -12.31,-9.2 -20.88,-9.2 -19.48,0 -32.57,15.43 -32.57,38.18 0,22.75 12.78,37.71 32.1,37.71 12.62,0 20.26,-4.99 30.38,-19.48l-3.74 -2.18zm-37.08 -24.46c0.47,-18.7 3.27,-24.93 10.91,-24.93 4.36,0 7.32,2.49 8.57,7.32 0.77,2.96 1.09,7.32 1.4,15.27l0 2.34 -20.88 0zm77.59 -27.89l-29.44 0 0 3.73c6.7,0.94 8.41,2.96 8.41,9.2l0 45.81c0,6.39 -1.56,8.1 -8.41,9.35l0 3.74 41.44 0 0 -3.74c-9.5,-0.63 -11.37,-2.65 -11.37,-12.31l0 -29.45c0,-8.1 4.36,-14.8 9.5,-14.8 1.25,0 2.65,1.09 4.37,3.58 2.96,4.21 5.29,5.61 9.34,5.61 5.77,0 9.82,-4.36 9.82,-10.44 0,-7.01 -5.3,-12.16 -12.62,-12.16 -7.79,0 -13.71,4.21 -21.04,14.65l0 -12.77zm107.36 9.81l0 -8.26 -20.25 0c-6.86,-2.49 -11.22,-3.43 -17.46,-3.43 -18.54,0 -31.63,10.29 -31.63,25.09 0,5.3 2.03,10.44 5.61,14.8 3.43,3.74 6.39,5.77 13.71,8.89 -12.31,4.2 -18.54,10.12 -18.54,18.23 0,6.38 2.81,9.19 12.78,12.77 -9.82,1.4 -14.96,5.3 -14.96,11.69 0,9.04 11.69,14.33 31.32,14.33 25.86,0 39.58,-8.1 39.58,-23.52 0,-12 -9.66,-19.17 -25.56,-19.17l-10.12 0c-12.47,0 -15.59,-1.09 -15.59,-5.45 0,-4.68 4.37,-8.11 10.6,-8.11l7.01 0.16c7.32,0 11.22,-0.93 16.52,-4.05 7.01,-4.05 10.59,-10.44 10.59,-18.7 0,-6.23 -1.87,-10.91 -6.23,-15.27l12.62 0zm-24.62 70.12c8.42,0 12.47,2.65 12.47,7.79 0,7.17 -8.57,11.22 -24,11.22 -13.71,0 -20.88,-3.59 -20.88,-10.44 0,-3.27 1.09,-4.99 5.46,-8.57l26.95 0zm-13.09 -76.97c7.33,0 10.29,5.92 10.29,20.41 0,14.49 -2.96,20.1 -10.29,20.1 -7.48,0 -10.28,-5.61 -10.28,-20.1 0,-14.65 2.96,-20.41 10.28,-20.41zm313.1 -36.47l-88.35 0 0 3.9c10.75,0.62 13.72,2.96 13.72,11.06l0 75.42c0,8.1 -2.19,9.81 -13.72,11.06l0 3.9 56.1 0 0 -3.9c-14.34,-0.62 -17.14,-2.49 -17.14,-11.06l0 -36.31c15.89,0.31 21.66,6.08 23.84,24.15l3.89 0 0 -52.66 -3.89 0c-2.81,17.76 -8.26,23.21 -23.84,23.21l0 -36.14c0,-5.77 2.02,-7.33 9.97,-7.33 14.33,0 23.53,2.65 28.36,8.11 3.43,3.89 5.14,8.1 7.32,17.91l3.74 0 0 -31.32zm40.51 31.63c-19.79,0 -35.21,16.37 -35.21,37.56 0,22.28 14.8,38.33 35.21,38.33 20.1,0 35.06,-16.21 35.06,-37.87 0,-21.81 -14.96,-38.02 -35.06,-38.02zm0.16 4.84c9.04,0 12,8.57 12,34.12 0,24 -3.12,32.1 -12.16,32.1 -9.19,0 -12.31,-7.95 -12.31,-30.7 0,-27.42 2.81,-35.52 12.47,-35.52zm72.61 -2.96l-29.45 0 0 3.73c6.7,0.94 8.41,2.96 8.41,9.2l0 45.81c0,6.39 -1.55,8.1 -8.41,9.35l0 3.74 41.45 0 0 -3.74c-9.51,-0.63 -11.38,-2.65 -11.38,-12.31l0 -29.45c0,-8.1 4.37,-14.8 9.51,-14.8 1.24,0 2.65,1.09 4.36,3.58 2.96,4.21 5.3,5.61 9.35,5.61 5.76,0 9.82,-4.36 9.82,-10.44 0,-7.01 -5.3,-12.16 -12.63,-12.16 -7.79,0 -13.71,4.21 -21.03,14.65l0 -12.77zm85.23 21.03l0 -22.59 -3.43 0c-0.93,2.33 -1.87,3.11 -3.74,3.11 -0.93,0 -2.49,-0.31 -4.98,-1.09 -5.14,-1.71 -8.73,-2.34 -12.16,-2.34 -14.18,0 -24.46,9.67 -24.46,22.75 0,10.29 6.39,17.46 22.13,24.16 10.59,4.67 14.95,8.57 14.95,13.55 0,6.08 -4.67,10.13 -11.68,10.13 -10.91,0 -18.08,-7.01 -21.35,-20.57l-4.36 0 0 25.71 3.89 0c1.72,-3.27 2.65,-4.36 4.05,-4.36 0.78,0 2.03,0.31 3.59,0.93 4.21,1.87 12.46,3.59 16.83,3.59 14.18,0 23.99,-9.66 23.99,-23.69 0,-11.06 -6.07,-17.76 -21.5,-24.3 -10.6,-4.52 -14.96,-8.42 -14.96,-13.72 0,-5.14 4.36,-9.03 10.29,-9.03 4.05,0 8.25,1.71 11.68,4.98 3.27,3.12 4.99,5.92 7.32,12.78l3.9 0zm55.16 -21.03l-14.65 0 0 -26.34 -3.89 0c-9.51,13.4 -15.74,20.41 -25.87,28.98l0 4.21 8.1 0 0 50.49c0,10.12 6.7,16.36 17.46,16.36 10.43,0 16.67,-4.68 23.06,-17.46l-3.9 -1.71c-3.12,5.92 -5.61,8.1 -8.88,8.1 -4.36,0 -6.08,-2.65 -6.08,-8.88l0 -46.9 14.65 0 0 -6.85z"/>
  <path class="fil5" d="M886.94 530.29c0,-0.59 1.06,-0.79 1.06,-0.13 0,1.19 -0.19,0.4 -0.39,1.19 -0.35,-0.19 -0.67,-0.46 -0.67,-1.06zm34.26 -36.9c0,0.33 0.07,0.33 0.15,0.66 0.55,-0.07 0.67,0 0.67,-0.53 0,-0.66 -0.82,-0.47 -0.82,-0.13zm-24.24 -19.88l0.27 0.46 0.83 0c0.47,-0.99 0.27,-1.26 -0.71,-1.26 -0.15,0.33 -0.27,0.4 -0.39,0.8zm28.52 20.01c0,0.46 0.23,0.93 0.7,0.99 0.47,0 0.44,-0.59 0.63,-0.99 -0.63,-0.47 -1.33,-0.6 -1.33,0zm-9.51 -0.47l0 0.87 0.51 0.39c0.63,-0.39 0.71,-0.59 0.71,-1.26 -0.55,-0.26 -0.55,-0.33 -1.22,0zm-14.06 -20.21l0 0.87 1.22 0c0.11,-0.27 0.15,-0.47 0.27,-0.73 -0.19,-0.2 -0.08,-0.14 -0.31,-0.33 -0.28,-0.2 -0.2,-0.14 -0.51,-0.34l-0.67 0.53zm5.11 0.4c0,0.33 0.03,0.4 0.11,0.6l0.44 0.4c0.62,-0.47 0.78,-0.4 0.78,-1.4 -0.51,-0.33 -0.43,-0.39 -1.06,-0.39 -0.16,0.26 -0.27,0.39 -0.27,0.79zm15.39 -64.07c0.71,0 1.1,0.26 2.28,0.26l4.68 0.13c0.98,0 1.17,0.27 2.16,0.27 1.69,0 3.22,0.33 4.55,0.4 1.3,0 6.56,0.86 8.64,1.12 1.06,0.07 7.54,1.19 8.13,1.66 0.63,0.53 0.08,3.18 -0.31,3.78 -0.55,0.46 -11.82,-1.73 -13.79,-1.79 -1.53,0 -3.22,-0.2 -4.79,-0.4 -3.1,-0.4 -6.64,-0.33 -9.94,-0.53 -7.42,-0.4 -26.55,-0.46 -32.17,0.4 -0.74,0.06 -1.49,0 -2.24,0 -0.94,0.06 -0.82,0.26 -2,0.26 -3.61,0.13 -9.54,0.86 -13.28,1.39l0 0.14c-0.82,0 -1.17,-2.19 -1.17,-2.85 0,-1.53 4.16,-1.26 6.52,-1.86 1.73,-0.46 13.35,-1.59 14.73,-1.59l5.69 -0.53c0.47,0 0.87,0.13 1.42,-0.07l20.89 -0.19zm-21.29 -9.81c1.22,0 3.07,-3.12 8.33,-3.98l3.3 -0.46c2.16,0 4.95,0.79 6.87,1.72 0.99,0.46 1.69,0.8 2.6,1.33 0.62,0.33 1.65,1.39 2.31,1.39 0.2,0 4.13,-1.72 4.84,-1.99 1.45,-0.53 4.2,-0.66 6.16,-0.66 3.58,0 6.56,1.32 8.96,2.52 1.41,0.72 2.32,2.05 3.69,0.86 1.85,-1.66 3.3,-1.79 5.58,-1.79 0.86,0 2.67,0.86 2.59,1.79 -0.08,0.73 -0.74,2.78 -0.98,3.58 -0.28,0.99 -1.53,6.95 -2.16,6.95 -2.67,0 -5.78,-0.99 -8.17,-1.19 -1.38,-0.13 -2.99,-0.26 -4.17,-0.53 -1.06,-0.33 -2.9,-0.2 -4.12,-0.46 -2.12,-0.4 -5.34,-0.33 -8.17,-0.53 -0.9,0 -0.94,-0.27 -2.16,-0.27 -1.45,0.07 -2.44,-0.13 -4.4,-0.13 -1.1,0.07 -1.57,-0.27 -2,-0.27l-9.51 0c-2.47,0 -4.63,0.14 -6.99,0.14 -2.71,0 -3.81,0.33 -6.17,0.39 -0.94,0.07 -0.63,0.27 -1.57,0.27 -0.59,0.07 -1.18,0 -1.77,0 -2.51,0.07 -3.81,0.46 -6.12,0.6 -1.1,0 -2.32,0.13 -3.15,0.33 -1.92,0.39 -4.67,0.26 -6.4,0.66 -1.02,0.26 -2.12,0.33 -3.34,0.33 -1.21,0 -1.84,0.66 -2.43,-0.53 -0.71,-1.32 -1.02,-3.91 -1.69,-5.43 -0.35,-0.86 -0.59,-1.59 -0.87,-2.59 -0.15,-0.46 -1.02,-2.25 -1.02,-2.45 0,-0.86 1.65,-1.86 2.12,-1.86 3.22,0 4.05,-0.32 6.76,2.39 1.69,1.66 1.73,0.99 3.81,-0.33 2.28,-1.39 7.03,-2.72 9.94,-2.72 0.78,0 4.4,0.6 5.26,0.87 0.75,0.26 4.24,2.05 4.24,2.05zm0.12 -5.24c0.51,0 2.63,-1.52 3.38,-1.85 1.53,-0.66 2.04,-0.86 3.85,-1.39 3.81,-1 9.39,-0.47 12.8,1.45 4.99,2.79 2.05,1.93 7.07,0.67 3.93,-1 5.03,-0.73 9.08,-0.73 3.22,0 8.95,3.18 9.35,3.18 0.23,0 3.77,-2.25 7.03,-2.39 0.86,0 3.22,0.6 3.85,0.93 3.65,1.79 1.88,3.65 1.18,3.65 -2.79,0 -3.27,-1.2 -6.17,-1.26 -2.6,0 -4.72,1.85 -5.3,1.99 -0.99,0.19 -1.77,-0.6 -2.48,-1 -0.82,-0.4 -1.73,-0.66 -2.59,-0.99 -0.79,-0.33 -1.96,-0.73 -2.79,-0.86 -4.28,-0.67 -1.14,-0.6 -6.25,-0.6 -0.58,0 -0.39,0.26 -1.21,0.26 -1.22,0.07 -2.16,0.14 -3.46,0.6 -0.79,0.27 -3.5,1.59 -3.89,1.59 -0.86,0 -1.92,-0.99 -2.55,-1.39 -0.67,-0.4 -1.81,-0.93 -2.6,-1.26 -4.75,-2.05 -11.66,-1.92 -16.06,0.99 -0.35,0.27 -1.81,1.39 -2.08,1.39 -1.38,0 -4.13,-2.45 -9.94,-2.45 -4.67,0 -6.56,1.4 -9.43,2.39 -1.1,0.33 -1.84,1.26 -2.59,1.26 -0.78,0 -3.38,-3.12 -6.44,-3.12l-2.12 0c-1.34,0 -3.42,2.19 -4.32,2.19 -1.02,0 -1.06,-1.72 -0.91,-2.12 0.63,-1.79 2.83,-2.92 4.8,-2.98 0.9,0 0.94,-0.27 1.21,-0.27 1.85,0 3.7,0.53 5.31,1.4 1.65,0.86 2.12,1.92 3.73,0.79 0.98,-0.66 2.59,-1.52 3.89,-1.86 0.9,-0.19 1.41,-0.39 2.43,-0.53 3.73,-0.39 3.34,-0.59 7.39,0.07 3.18,0.53 5.73,2.25 6.83,2.25zm59.75 -1.98c0,-0.73 0.51,-1.73 1.72,-1.73 3.11,0 2.44,2.72 1.65,3.52 -1.49,1.32 -3.37,0.13 -3.37,-0.73l0 -1.06zm-98.56 -2.39c0.2,0 1.06,0.6 1.22,0.8 0.98,0.92 0.51,3.11 -1.53,2.98 -2.75,-0.2 -2.12,-3.78 0.31,-3.78zm46.71 -1.52c-0.51,0.39 -0.67,0.39 -0.67,-0.53 0.63,0.06 0.47,0.13 0.67,0.53zm6.71 -1.2c0.2,0.4 0.12,0.4 0.12,0.93l-0.51 0.13c-0.2,-0.33 -0.16,0.14 -0.16,-0.39 0,-0.4 0.2,-0.53 0.55,-0.67zm49.93 2.12c-1.57,0 -2.16,-0.79 -2.24,-2.25 -0.08,-1.72 2.32,-2.72 3.77,-1.66 0.75,0.6 1.53,3.91 -1.53,3.91zm-106.68 -0.92c-1.03,0 -2.01,-1.26 -1.85,-2.32 0.23,-1.33 2.32,-2.72 3.57,-1 1.26,1.79 -0.23,3.32 -0.82,3.32l-0.9 0zm53.14 -0.67c-0.47,0 -1.14,-0.26 -1.41,-0.46 -1.42,-1.13 0.23,-4.9 2.63,-2.45 0.86,0.79 0.78,2.91 -1.22,2.91zm53.14 -6.95c0,-0.53 0.28,-0.87 0.56,-1.06 0.86,-0.67 1.17,-0.53 2.12,-0.53 0.47,0 1.49,0.92 1.45,2.25 -0.04,2.58 -4.13,2.38 -4.13,0.26l0 -0.92zm-109.51 -0.4c0,-1.59 1.26,-1.59 2.13,-1.59 1.33,0 2.04,1.99 1.25,3.11 -0.67,0.93 -3.38,1.26 -3.38,-1.52zm54.48 -0.4c0,-2.32 3.89,-1.79 3.89,0.27 0,2.51 -3.89,2.98 -3.89,-0.27zm56.76 -2.65c-1.61,0 -2.55,-2.25 -1.41,-3.44 0.63,-0.73 1.41,-0.73 2.24,-0.73 0.67,0 1.45,0.92 1.45,1.32l0 0.93c0,0.46 -0.63,1.92 -2.28,1.92zm-55.15 -0.66c-0.23,0 -0.98,-0.53 -1.13,-0.73 -0.59,-0.73 -0.51,-1.99 0.27,-2.58 2.91,-2.19 5.03,3.31 0.86,3.31zm-56.24 -2.45c0,-2.52 3.65,-2.52 3.96,-0.33 0.51,3.31 -3.96,3.57 -3.96,0.33zm106.99 -5.24c0,-0.33 0.59,-0.93 0.91,-1.12 2.08,-1.4 3.49,0.66 3.49,1.92 0,0.99 -1.14,2.05 -2.12,2.05 -2.08,0 -2.28,-1.52 -2.28,-2.85zm-54.48 16.24c-0.63,-1.13 -0.7,-2.65 -1.02,-3.98 -0.75,-2.98 -1.1,-4.97 -2.12,-7.75l-1.14 -3.85c0,-0.92 2.08,0.87 2.44,1.06 0.98,0.6 1.88,0.93 2.75,1.53 -0.16,1.85 -1.26,1.66 -0.12,4.04 0.86,1.79 -0.55,1.86 -0.55,4.11 0,1.26 0.82,1.66 0.82,2.58 0,0.93 -1.02,2.19 -1.06,2.26zm6.8 -7.49c0,-0.53 1.22,-1.06 1.02,-3.31 -0.16,-1.6 -1.22,-1.99 0.51,-2.85 1.18,-0.6 1.89,-0.8 2.95,-1.59 1.96,-1.53 1.17,0.33 0.78,1.45 -1.57,4.31 -2.79,9.15 -3.89,13.92 -0.63,-0.2 -1.1,-1.19 -1.1,-1.99 0,-0.79 0.99,-1.19 0.79,-2.85 -0.12,-0.86 -1.06,-2.65 -1.06,-2.78zm-2.52 -6.3c-0.19,0 -1.37,-0.46 -1.57,-0.59 -0.98,-0.8 -0.74,-3.45 1.57,-3.45 1.93,0 2.2,2.59 1.3,3.45 -0.16,0.13 -1.1,0.59 -1.3,0.59zm-54.24 -2.98c0,-0.46 0.43,-0.99 0.71,-1.19 0.12,-0.07 0.08,-0.13 0.63,-0.2 1.25,-0.07 2.16,0.46 2.16,1.79 0,2.25 -3.5,2.38 -3.5,0.4l0 -0.8zm68.82 4.31c0.08,-2.65 1.96,-2.45 4.16,-2.92 4.6,-0.92 11.63,-3.57 15.95,-3.64 0.94,0 0.9,-0.27 1.45,-0.27 2.71,0 4.4,-0.06 7.07,1.26 1.61,0.8 1.93,1.06 3.26,2.06 1.49,1.19 3.54,4.44 3.73,6.95 0.32,3.85 0.08,6.03 -1.17,9.02 -0.55,1.39 -3.15,6.29 -4.44,6.29 -0.99,0 -1.18,0.07 -1.89,-0.4 0.12,-0.46 2.52,-3.38 3.65,-5.76 2.16,-4.71 2.24,-10.07 -1.53,-13.78 -2.94,-2.85 -6.24,-2.72 -9.9,-2.72 -2.27,0 -7.77,1.26 -9.5,1.85 -1.34,0.53 -7.82,2.12 -9.08,2.19l-1.76 -0.13zm-59.43 17.82c0,-0.06 -1.77,-2.32 -2.01,-2.58 -1.8,-2.39 -3.45,-6.96 -3.33,-10.14 0.23,-5.17 3.18,-9.41 6.99,-11.06 7.07,-3.19 14.81,0.92 22.19,2.58 1.41,0.33 2.59,0.33 3.97,0.6 0.78,0.13 1.37,0 1.76,0.53 0.2,0.26 0.56,1.25 0.56,1.72 0,0.99 -2.24,0.26 -3.5,0.13 -0.94,-0.07 -1.65,-0.46 -2.44,-0.66 -1.49,-0.33 -3.69,-0.6 -4.91,-1.06 -1.53,-0.6 -3.18,-0.86 -4.75,-1.46 -0.9,-0.33 -3.93,-0.99 -5.03,-0.99 -3.77,0 -6.6,0.13 -9.54,3.04 -2.99,2.99 -3.54,7.82 -2.24,11.93 0.55,1.72 1.57,3.58 2.51,5.04 0.44,0.66 1.38,1.46 1.22,2.32l-1.45 0.06zm35.94 -6.23c-0.71,-3.31 -2.48,-9.54 -3.81,-12.59 -0.39,-0.92 -2.16,-4.9 -2.16,-5.83 2.98,-1.19 3.89,3.18 4.32,4.38 0.78,1.98 1.33,3.91 2.04,6.03 0.55,1.79 2.75,11.66 1.97,13.32 -1.62,0.72 -1.54,-0.6 -1.73,-1.93 -0.16,-1.32 -0.36,-2.18 -0.63,-3.38zm14.53 2.99c0,-0.67 0.51,-2.26 0.59,-3.18 0.08,-1.06 2,-7.89 2.36,-8.88 0.71,-1.86 1.25,-3.71 2,-5.57 0.32,-0.79 0.71,-1.85 1.1,-2.65 0.28,-0.53 0.39,-0.79 0.94,-0.99 0.16,-0.07 1.42,-0.4 1.46,-0.4 1.57,0 -0.47,2.98 -0.91,4.04 -0.23,0.53 -0.27,0.93 -0.51,1.52 -0.86,1.99 -1.41,3.78 -2.08,5.9 -0.39,1.26 -0.51,1.86 -0.9,2.98l-0.95 3.12c-0.58,2.18 -0.82,4.5 -1.88,6.09 -1.49,-0.06 -1.22,-0.92 -1.22,-1.98zm-26.79 -22.73c0,-1.39 2.01,-2.92 3.15,-1 0.43,0.73 0.47,1 0.47,1.93 0,1.72 -3.62,2.18 -3.62,-0.93zm38.69 0.53c0,-0.73 0.79,-1.46 1.14,-1.72 1.42,-0.87 3.14,1.12 1.69,2.78 -0.43,0.53 -2.83,1.32 -2.83,-1.06zm28.8 -0.27c0,-1.79 2.71,-2.78 3.81,-1.26 0.47,0.6 0.55,1.79 0.19,2.46 -0.27,0.53 -1.88,1.92 -3.46,0.26 -0.43,-0.46 -0.11,0.07 -0.35,-0.73 -0.04,-0.2 -0.19,-0.59 -0.19,-0.73zm-97.06 -0.66c0,-0.99 1.29,-1.66 1.84,-1.66 1.18,0 2.16,1.13 2.16,2.32 0,0 -0.51,1.13 -0.63,1.26 -0.04,0 -1.25,0.47 -1.25,0.47 -1.1,0 -2.12,-0.86 -2.12,-1.33l0 -1.06zm23.84 -1.26c0,-1.26 3.34,-2.58 3.81,0.33 0.08,0.67 -0.67,2.12 -1.42,2.12 -0.7,0 -1.29,0 -1.92,-0.53 -0.59,-0.46 -0.47,-1.26 -0.47,-1.92zm49.65 -0.13c0,-0.93 2.55,-2.19 3.65,-0.53 0.2,0.26 0.39,0.79 0.28,1.26 -0.04,0.4 -0.4,0.99 -0.55,1.19 -0.2,0.2 -0.79,0.66 -1.1,0.66 -2.28,0 -2.28,-0.99 -2.28,-2.58zm17.79 -1.06c0,-0.93 1.22,-1.86 2.16,-1.86 2.87,0 2.79,4.31 0.12,4.31 -1.77,0 -2.28,-1.06 -2.28,-2.45zm-12.02 0.53c0,-4.11 6.13,-2.39 3.5,0.86 -1.18,1.46 -3.5,0.33 -3.5,-0.86zm-72.04 1.66c-2.43,0 -2.87,-3.91 0.28,-3.91 2.63,0 2.59,3.91 -0.28,3.91zm10.45 -1.93c0,-0.33 0.28,-1.39 0.39,-1.59 0.48,-0.86 2.4,-1.32 3.34,0 0.24,0.33 0.51,0.86 0.51,1.4 0,0.86 -0.9,1.98 -1.84,1.98l-0.79 0c-0.35,0 -1.61,-0.66 -1.61,-1.79zm67.6 -1.19c0,-0.2 0.67,-0.99 0.83,-1.19 1.29,-1.39 3.18,0.13 3.18,0.79l0 0.93c0,2.06 -2.63,2.39 -3.46,1.33 -0.63,-0.8 -0.55,-1.13 -0.55,-1.86zm-73.49 0.27c0,-2.12 2.36,-2.26 3.3,-1.4 0.43,0.4 0.67,0.87 0.63,1.46 -0.16,2.26 -3.93,2.72 -3.93,-0.06zm29.46 -0.53c0,-1.33 6.83,-0.53 7.34,-1.46 0.2,-0.33 0.16,-3.25 0.16,-4.18 0,-1.45 -0.31,-3.31 1.18,-3.31 1.18,0 1.57,-0.13 2.55,0.13 0.59,2.46 -0.51,5.77 0.79,7.76 0.43,-0.07 0.51,-0.14 0.94,-0.14l3.89 0c2.47,0 1.93,2.99 1.73,3.45l-14.3 0.13c-0.63,0.07 -0.47,0.27 -1.1,0.27 -2.43,0 -3.18,0.59 -3.18,-2.65zm6.4 -23.99c0,-0.47 0.59,-0.53 1.1,-0.53 1.02,0 4.01,-0.2 4.01,0.66 0,0.27 -1.93,5.24 -0.39,5.1l4.51 -0.66c0.51,-0.07 0.55,3.05 0.55,3.38 0,1.79 -2.79,-0.4 -5.46,0.13l0.51 4.77 -4.28 0c0,-1.92 0.98,-2.91 0.55,-4.77 -1.45,-0.33 -4.32,0.47 -4.71,0.27 -0.9,-0.33 -0.51,-2.32 -0.51,-2.98 0,-0.33 -0.24,-1.06 0.39,-1.06 0.98,0 4.83,1.39 4.83,-0.14 0,-1.59 -1.1,-2.71 -1.1,-4.17zm5.89 -2.39l-8.17 0c-0.62,0.93 -0.19,1.13 0.28,2.19 2.24,5.3 -1.89,1.52 -3.89,1.99 0,2.12 -0.28,4.7 0,6.29 0.27,2.06 -2.28,4.24 1.92,2.52 0.52,-0.2 2.6,-0.79 2.87,-0.06 0.2,0.39 -0.63,2.18 -0.82,2.58 -0.95,2.12 -2.16,1.99 -3.46,3.45 -4.44,5.16 -1.81,10.4 -3.22,10.86 -0.59,0.2 -2.71,-0.33 -3.02,-0.53 -0.99,-0.59 -1.03,-2.45 -3.97,-2.98 -1.65,-0.27 -1.89,0.26 -3.03,0.33 -1.1,-1.52 -2.82,-1.66 -5.1,-1.59 -0.67,0.07 -1.93,-2.25 -4.87,-1.86 -1.46,0.27 -1.38,1.2 -2.52,0.47 -1.69,-1 -3.65,-1.19 -5.3,-0.13 -1.18,0.73 -1.18,0.33 -2.63,0 -2.2,-0.6 -3.89,0.46 -4.99,1.65 -1.02,1.06 -0.2,1.06 -2.28,1.2 -1.02,0.13 -1.61,0.72 -2.28,1.19 -0.78,0.6 -0.9,1.26 -1.29,2.19 -0.51,1.26 -1.02,0.86 -1.93,1.59 -1.77,1.32 -1.61,2.38 -1.61,5.1 -4.16,2.78 -1.92,5.03 -1.49,6.29 0.51,1.46 -0.98,1.92 -1.06,3.58 -0.04,1.59 0.98,2.45 1.73,3.25 0.66,0.79 -0.2,2.72 0.43,4.24 0.59,1.39 1.92,1.92 2.28,2.72 0.59,1.39 -0.4,1.92 1.18,3.77 1.02,1.2 2.04,1.06 3.22,1.73 0.58,1.12 0.19,1.65 1.25,2.91 0.75,0.93 1.34,0.99 2.48,1.52 1.53,0.73 2.24,3.58 2.71,5.31 0.59,2.25 1.33,4.04 1.57,6.56 0.12,1.12 0.35,2.45 0.59,3.44 0.35,1.2 0.04,2.45 0.51,3.51 2.91,0 9.58,-1.52 13.12,-1.72 1.26,-0.06 2.16,-0.2 3.46,-0.33 0.82,-0.07 2.63,0.07 3.45,-0.13 3.1,-0.6 11.28,-0.4 13.95,-0.66 1.57,-0.2 10.09,0.19 12.88,0.19 0.78,0 1.22,0.14 1.69,0.14 0.31,0 0.63,-0.27 1.49,-0.14 1.18,0.14 1.85,0.27 3.38,0.27 4.67,0 7.86,0.53 13,0.66 1.06,0 2.44,0.13 3.42,0.33 0.94,0.2 2.35,0.07 3.38,0.27 0.98,0.13 1.84,0.4 3.14,0.53 2.04,0.26 3.89,0.86 6.28,1.12 2.28,0.27 1.38,-0.33 1.46,-1.85 0.04,-0.66 0.19,-0.93 0.15,-1.52 -0.11,-2.39 1.06,-8.75 1.73,-10.81 0.43,-1.45 0.94,-4.5 2.44,-4.9 2.83,-0.66 2.63,-3.05 3.38,-3.97 0.47,-0.67 2.86,-0.87 3.69,-3.72 0.47,-1.52 -0.51,-1.72 1.14,-2.58 1.8,-0.93 2.39,-3.18 1.96,-4.97 -0.39,-1.46 0.32,-1.46 0.9,-2.32 0.36,-0.46 0.83,-2.19 0.59,-3.05 -0.23,-0.79 -1.14,-1.59 -0.74,-2.65 0.86,-2.32 1.49,-3.38 -0.43,-5.23 -0.95,-0.93 -1.38,-0.67 -1.42,-2.19 0,-1.59 0.31,-3.38 -2.47,-4.57 -1.81,-0.73 -1.1,0 -1.69,-1.86 -0.75,-2.38 -2.08,-2.45 -4.48,-2.91 -1.77,-0.33 -1.18,-0.6 -2.08,-1.66 -0.4,-0.4 -1.69,-1.13 -2.4,-1.19 -1.77,-0.2 -2.47,0.46 -3.22,0.46 -0.43,0 -1.53,-0.93 -2.36,-1.19 -3.22,-1.06 -3.41,1.32 -5.61,0.6 -3.62,-1.2 -3.81,0.99 -5.15,1.59 -0.63,0.26 -2.67,-1.4 -5.38,0.92 -1.41,1.2 -3.18,-0.66 -5.22,1.59 -0.95,1 -0.59,1.13 -2.24,1.53 -0.67,0.2 -2.08,0.79 -2.95,0.4 -0.27,-1.33 1.18,-5.5 -2.4,-9.81 -0.47,-0.6 -0.98,-1.33 -1.53,-1.72 -0.55,-0.4 -1.29,-0.93 -1.77,-1.46 -0.51,-0.53 -0.86,-1.19 -1.21,-1.99 -0.47,-1.13 -0.75,-1.13 -0.43,-2.32l4.63 1.53 0.08 -9.81c-1.73,0 -4.64,1.65 -5.19,0.66 -0.7,-1.26 1.93,-3.18 1.26,-4.51l-1.77 -0.33zm27.07 195.61c-0.2,-0.06 -0.55,-0.2 -0.55,-0.4 0,-1.12 1.06,-2.18 1.06,-0.53 0,0.53 -0.2,0.73 -0.51,0.93zm-57.19 -1.99c0,-2.25 1.65,-2.05 2.2,-1.79l0.31 0.2c0,0.07 0.04,0.07 0.04,0.07 0.35,0.46 0.71,1.92 -0.94,2.19 -0.87,0.13 -1.61,-0.2 -1.61,-0.67zm56.13 -0.92c-0.59,0 -0.79,-0.07 -0.95,-0.8 0.95,-1.06 2.67,-0.93 2.67,-0.13 0,0.46 0.08,0.2 -0.47,0.4l-0.31 0.13c-1.02,0.4 -0.51,0.4 -0.94,0.4zm-41.8 -1.4c0,-0.06 0.43,-0.53 0.55,-0.53 0.79,0 0.51,1.66 0.51,2.46 -0.7,-0.2 -0.27,-0.2 -0.94,-1.59 -0.12,-0.2 -0.12,0.19 -0.12,-0.34zm28.52 -0.39c0,-0.86 0.86,-0.73 1.26,-0.27 0.31,0.33 0.23,0.4 0.23,1 -0.43,0.13 -0.15,-0.07 -0.47,0.46 -0.23,0.33 0.08,0.26 -0.63,0.46 -0.39,-0.66 -0.16,-0.53 -0.23,-1.06 -0.08,-0.73 -0.16,0.07 -0.16,-0.59zm-45.92 0.13c-0.7,0 -0.63,-1.06 -0.31,-1.59 0.43,-0.8 1.53,-0.66 1.53,0.13l-1.22 1.46zm15.24 -0.4c-0.19,-0.93 0.47,-1.72 1.22,-1.72 0.94,0 1.22,-0.13 1.61,0.4 -0.31,0.59 -0.08,0.33 -1.26,0.73 -0.94,0.33 -0.51,0.59 -1.57,0.59zm31.35 -2.52c1.06,-0.26 0.39,-0.13 1.29,0.07 1.06,0.26 0.59,-0.13 1.38,0.73 0.47,0.59 0.43,0.2 0.43,1.32 -1.26,0 -0.98,-0.46 -2.36,-0.86 -0.39,-0.13 -0.43,-0.13 -0.74,-0.33l0 -0.93zm17.12 -0.13c0,-0.46 0.28,-0.4 0.83,-0.4 0.31,0.6 0.86,1.33 0.12,1.86l-0.95 -1.46zm-62.25 -1.32c0.39,0 0.66,0 0.9,0.26 0.51,0.6 0.24,1.13 0.19,1.33 -1.61,-0.14 -2,-1.59 -1.09,-1.59zm60.8 0.66c-0.82,0 -0.43,-2.12 0.94,-2.12 1.26,0 0.04,2.12 -0.94,2.12zm-56.52 31.61c1.88,0 4.12,0.99 6.2,0.39 5.46,-1.52 1.46,-6.09 1.46,-6.09 -1.14,-2.65 4.24,-2.06 7.07,-0.6 1.53,0.73 2.9,1.59 4.12,2.72 0.63,0.53 1.22,1.26 0.83,2.32 -0.36,0.92 -1.26,0.99 -2.13,1.39 -3.22,1.39 -2.98,5.1 2.6,6.89 1.96,0.66 3.1,1.13 5.69,1.13 1.5,0 1.97,-0.27 3.15,-0.34 1.53,-0.19 1.49,-0.46 2.63,-0.86 1.96,-0.72 2.83,-1.32 3.49,-3.31 0.98,-3.05 -1.69,-3.64 -2.31,-4.17 -1.46,-1.26 1.41,-3.38 2.04,-4.05 1.25,-1.12 2.71,-1.79 4.51,-2.45 1.65,-0.53 4.99,-0.73 4.4,1.86 -0.31,1.32 -2,3.71 0.16,5.03 2.12,1.39 5.89,0.07 8.17,-0.79 0.94,-0.4 1.53,-0.86 2.28,-1.26 1.77,-0.86 2.79,-1.26 3.69,-3.11 1.02,-1.99 -0.12,-3.58 -1.77,-4.25 -0.78,-0.33 -2.04,-0.2 -2.24,-1.12 -0.11,-0.67 0.83,-1.66 1.34,-1.99 1.38,-0.99 2.67,-1.92 4.44,-2.59 1.49,-0.53 4.01,-1.19 5.03,0.07 1.33,1.66 -1.97,2.85 -0.51,5.04 0.86,1.32 3.42,1.59 4.98,0.99 1.69,-0.66 2.87,-1.72 4.29,-2.72 5.02,-3.51 6.44,-12.85 -0.95,-10.27 -2.94,1 -2.63,-1.19 -2.71,-3.64 -0.04,-1.39 2.32,-8.28 5.46,-8.28 0.04,0.33 0.48,0.79 0.71,1.45 1.53,4.44 5.77,1.99 6.36,-5.03l0.28 0c0,1.72 0.24,2.78 0.19,3.84 0,1.19 -0.07,3.12 -0.19,4.31 -0.24,2.85 -0.98,5.17 -1.49,7.62 -0.91,4.24 -4.28,8.55 -7.27,10.93 -7.11,5.77 -15.59,7.95 -24.51,11.8 -5.93,2.52 -13.08,5.43 -18.66,8.54 -3.26,1.79 -4.12,3.32 -5.97,2.13l-12.21 -5.97c-2.17,-0.99 -4.25,-1.79 -6.45,-2.71 -0.82,-0.34 -5.93,-2.52 -6.2,-2.85zm41.52 -38.04c0.35,-0.46 0.27,-0.2 0.74,-0.46 0.39,-0.27 0.39,-0.6 0.59,-0.6 1.77,0 2.79,4.9 5.89,4.9 1.97,0 2.2,-1.92 3.11,-2.51 0.47,0.26 0.63,0.39 0.55,0.92 -0.24,1.06 -0.44,0.73 -0.44,1.86 0,0.93 1.3,0.33 2.01,0.73 -0.12,1.46 -3.46,0.46 -3.46,2.12 0,0.53 1.65,1.19 1.85,2.12 -1.18,0.79 -2.12,-0.33 -3.38,-0.86 -1.46,-0.67 -4.13,0.33 -4.13,-0.86 0,-0.67 1.5,-0.53 1.5,-1.73 0,-2.45 -3.89,-3.84 -4.83,-5.63zm-35.75 5.9c0,1.46 1.22,1.39 1.49,2.38 -1.1,0.6 -2.23,0.47 -3.41,0.8 -0.99,0.26 -2.28,0.99 -3.15,0.4 0.08,-1.33 2.52,-1.06 2.52,-2.52 0,-1.33 -3.81,0.26 -4.56,-1.06l1.77 -0.66c0,-1.59 -0.98,-3.58 -2.16,-3.91l1.18 -1.79c2.16,0.53 -0.39,5.43 3.49,5.43 0.98,0 2.99,-1.99 3.42,-2.65 1.34,-1.99 1.41,-3.51 3.14,-3.51 2.24,0 -3.73,4.64 -3.73,7.09zm-10.72 -6.83c0.12,-1.06 1.65,-0.92 2,-0.79 1.06,0.33 0.79,0.99 -0.12,1.59 -0.78,-0.2 -0.07,-0.4 -1.88,-0.8zm56.95 -0.13c-0.08,-0.6 0.16,-0.93 0.75,-1.06 0.27,0.13 0.35,0.33 0.59,0.6 0.47,0.53 0.9,0.73 -0.04,1.39 -0.28,-0.07 -0.59,-0.2 -0.87,-0.33 -0.39,-0.27 -0.35,-0.2 -0.43,-0.6zm2.36 -1.92c0.55,-0.07 1.06,-0.47 2.2,-0.07 0.47,0.2 0.35,0 0.51,0.47 -0.55,0.06 -0.63,0.13 -0.94,0.33 -0.47,0.26 -0.08,0.13 -0.79,0.26 -0.98,0.27 -0.98,0.14 -0.98,-0.99zm-21.13 -5.17l0 -4.84c0,-0.46 0.27,-0.2 0.27,-0.66 0,-3.44 -3.77,-2.45 -3.77,-0.93 0.08,2.98 0.12,2.85 -0.08,6.03 -1.61,-0.13 -1.37,-0.73 -1.49,-2.25 -0.12,-1.79 0,-4.37 0.12,-6.23 0.04,-0.86 -1.02,-1.12 -0.43,-1.46 0.07,-0.06 1.88,-0.39 2.04,-0.39 12.84,0 10.02,-0.2 10.02,2.78 0,0.79 0,1.52 0,2.32 0,1.12 0.23,3.84 -0.79,3.84 -2.16,0 0.23,-5.76 -1.77,-5.76l-1.57 0c-1.69,0 0.2,8.08 -1.37,8.08 -0.47,0 -1.18,0.07 -1.18,-0.53zm-7.51 -10.73c0,-0.07 0.28,-1 0.28,-1.73l0.35 0 0.04 2.52c0.04,1.53 0.51,1.13 0.55,2.39 0.16,9.21 -1.06,8.61 2.95,8.61 2.39,0 0.27,-5.5 1.61,-6.43 1.37,0.33 -0.28,6.3 0.78,7.09l3.34 0.4c1.3,0.07 0.32,-5.23 0.95,-7.62 0.59,0.4 0.55,1.79 0.55,2.39 0,3.38 -1.14,2.98 2.55,3.64 -0.24,1.39 -3.61,3.51 -4.83,4.31 -1.69,1.12 -4.17,1.46 -6.01,1.72 -0.75,0.07 -0.39,0.27 -0.83,0.27 -1.88,0 -1.61,-0.8 -1.61,-2.99 0.04,-4.83 -0.35,-9.8 -0.67,-14.57zm-8.95 11.79c0.98,2.12 -0.55,2.92 2.12,3.98 0.83,0.33 3.77,1.26 4.68,1.39l0 0.26c-3.11,-0.06 -4.25,-0.73 -7.15,-1.92 -1.46,-0.59 -3.19,-1.99 -4.13,-3.05 -0.39,-0.39 -0.43,-0.72 -0.98,-1.26 -1.02,-0.99 -1.22,-1.59 -1.96,-2.71 -1.03,-1.53 -0.75,-1.59 -1.3,-3.38 -0.63,-2.06 -1.49,-5.5 -1.06,-7.36 0.31,0.47 0.59,3.05 0.75,3.91 0.11,0.47 0.98,3.32 1.09,3.45 0.71,1.06 2.6,-0.4 2.83,1.72 0.16,1.46 -0.16,3.12 0.12,4.44l4.99 0.53zm20.07 -14.44c0,-0.87 0.67,-1.13 1.45,-1.13 1.69,0 1.77,2.05 0.51,2.65 -0.27,0.13 -0.19,0.13 -0.47,0.13 -0.43,0 -0.86,-0.2 -1.1,-0.46 -0.19,-0.33 -0.39,-0.8 -0.39,-1.19zm-8.05 1.59c-0.55,0 -1.18,-0.53 -1.34,-0.93 -0.47,-1.13 0.79,-2.45 1.81,-1.79 0.9,0.53 1.26,2.72 -0.47,2.72zm4.44 0c-0.91,0 -1.49,-2.59 0.12,-2.59 0.62,0 1.13,0.2 1.37,0.66 0,0.07 0.04,0.27 0.08,0.34 0.31,1.78 -0.63,1.59 -1.57,1.59zm-26.12 -1.73l0 0.4c-0.44,-0.33 -0.4,-0.13 0,-0.4zm5.54 1.13c-0.28,-1.26 -0.16,-2.05 0.07,-3.05 1.38,0 10.85,-0.13 11.32,0.07 0.98,0.46 0.66,3.84 0.66,4.9 -0.04,1.86 0,3.65 0.04,5.24l-0.23 4.24c-0.83,0.39 -2.28,0.46 -2.4,-0.53 -0.47,-3.85 0.28,-4.58 -2,-4.64 -0.94,-0.07 -0.47,-0.2 -1.5,-0.27 -0.82,-0.06 -0.78,0 -1.02,-0.73 -0.66,-2.31 1.22,-4.1 -2.31,-4.37 -0.87,-0.07 -2.44,0 -2.63,-0.86zm18.14 -1.99c0.04,-0.4 -0.04,-0.53 0.28,-0.66 0.23,-0.13 0.43,-0.13 0.43,0.26l0 0.4 -0.71 0zm-4.67 0c0,-0.53 0.12,-0.66 0.55,-0.79 0.16,0.39 0.12,-0.07 0.12,0.39 0,0.34 -0.32,0.67 -0.4,1.06 -0.27,-0.13 -0.27,0.07 -0.27,-0.66zm16.06 4.71c0.12,-0.8 0.16,-1.53 -0.35,-2.06 -0.83,-0.79 -0.79,-0.2 -0.9,-1.52 -0.08,-0.73 -0.71,-1.26 -0.75,-1.79 0.47,-0.07 0.47,-0.27 0.94,-0.27 0.87,0 2.12,-0.2 2.12,1.06 0,2.99 -0.19,3.71 -0.39,6.03 -0.12,2.06 -0.67,3.12 -1.06,4.71l-0.39 0c-0.43,-1.86 -0.28,-2.45 -0.28,-4.57 0,-0.67 0.91,-0.27 1.06,-1.59zm-6.28 -4.71c-0.16,-0.26 -0.12,-0.2 -0.12,-0.66l0.67 0c-0.08,0.66 -0.12,0.46 -0.55,0.66zm38.69 14.91c-3.5,0 -2.79,-13.91 0.27,-13.91 0.79,0 2.48,2.78 3.34,2.78l0.83 0c0.9,0 1.92,-1.39 2.28,-2.12 0.31,-0.66 1.02,-2.65 1.17,-2.85l0.44 12.32c0.08,3.05 0,3.91 -0.16,6.96 -0.28,-0.2 -0.94,-3.11 -1.34,-3.91 -0.47,-0.93 -1.45,-2.38 -2.67,-2.38 -2.24,0 -3.02,3.11 -4.16,3.11zm-45.64 -17.16c-3.54,0 -3.23,-0.53 -3.11,-3.84 0.08,-1.93 -0.7,-6.03 1.22,-6.03 3.97,0 2.16,1.39 2.95,4.77 0.66,0.2 1.06,0.53 2,0.53 1.41,0.06 1.18,0 2.28,0.26 0.16,0.73 0.12,1.39 0.23,2.26 0.2,1.45 -0.15,1.06 -0.35,1.92l-5.22 0.13zm-6.17 -3.65c0,-1.92 0,-3.91 0,-5.83 0,-1.52 -0.28,-1.72 0.55,-2.45 0.71,-0.59 0.67,-0.99 0.67,-2.25l0.16 0c0.19,2.52 0.23,4.84 0.31,7.35 0.04,1.79 0.51,5.5 -0.24,6.43 -0.82,1.06 -16.57,0 -16.97,-0.13 -0.9,-0.66 -0.55,-3.45 -0.55,-4.97 0,-1.92 -0.27,-3.51 -0.27,-4.84 0,-0.4 0.2,-0.13 0.2,-0.99 0,-0.4 -0.2,-0.73 0.35,-0.73 1.22,0 0.94,1.26 0.98,2.25l0.08 6.36c1.06,0.53 3.14,0.8 4.36,0.14l0.04 -4.31c0,-1.66 0.12,-1 0.27,-1.72l0.44 0c0.35,1.52 -0.24,7.35 0.66,8.01 0.71,0.73 3.42,0.67 3.89,-0.26 0.28,-0.53 0.12,-1.72 0.12,-2.45 0,-1.86 0.12,-3.25 0.12,-4.38 0,-0.39 0.12,-0.59 0.51,-0.66l0.04 4.64c0,0.73 0.31,1.26 1.06,1.26 1.53,-0.07 2.16,0.13 3.22,-0.47zm-9.23 -7.75c-2.95,0 -2.28,0.4 -2.28,3.65 0,2.38 0.55,3.11 -1.61,2.91 -0.16,-0.59 -0.39,-4.17 -0.39,-4.77 0.04,-0.53 0.23,-1.99 0.19,-2.45 -0.04,-1.06 -0.7,-1.13 -0.86,-1.79 4.08,-0.4 7.03,-0.2 10.96,-0.07 3.65,0.07 2,0 2,0.93l0 8.28 -1.61 0c-0.16,-0.26 -0.31,-2.78 -0.39,-3.31 -0.12,-1.19 0.71,-3.38 -1.22,-3.38 -2.24,0 -1.57,1.72 -1.57,3.65 0,1.72 0.39,5.23 -1.22,5.23 -1.61,0 -0.94,-4.24 -0.94,-5.23l-0.12 -3.38c-0.47,-0.07 -0.47,-0.27 -0.94,-0.27zm4.79 -5.76c0,-1.53 2.24,-1.33 2.79,-0.73 0.24,0.2 0.31,0.59 0.31,0.99 0,1.79 -2.55,1.72 -3.02,0.33 -0.08,-0.26 -0.08,-0.2 -0.08,-0.59zm-3.85 1.65c-1.53,0 -1.65,-2.85 -0.55,-2.85 0.83,0 1.93,-0.13 2.32,0.8 0.12,0.33 0.04,0.13 0.12,0.53 0.19,1.59 -0.63,1.52 -1.89,1.52zm-4.55 0c-1.54,0 -1.81,-2.05 -1.14,-2.45 2.39,-1.46 3.49,2.45 1.14,2.45zm27.41 -4.44c7.23,-0.06 5.66,-2.12 5.66,13.79 0,1.19 0.23,0.92 0.23,1.72 0,0.79 0.04,2.85 -0.51,3.25 -0.82,-0.2 -0.66,-2.39 -0.66,-3.12 0,-2.65 -1.34,-1.06 -1.85,-2.38 -0.35,-1 0.16,-2.85 -0.31,-3.78 -1.06,-1.39 -4.68,0.26 -4.68,-1.72 0,-0.86 0.16,-2.92 -0.51,-3.65 -0.47,-0.53 -2.67,-0.33 -3.61,-0.73 -0.44,-3.05 0.04,-2.85 -4.44,-2.85l0 -0.2c3.34,-0.66 1.29,-0.06 2.67,-0.06l0.51 -0.13 7.5 -0.14zm-30.79 4.44c-0.12,-0.59 -0.08,-0.66 -0.12,-1.39 -0.04,-0.93 -0.83,-2.91 0.67,-2.91 0.78,0 1.69,-0.14 1.14,0.59 -0.44,0.6 -0.71,0.2 -0.87,1.53 -0.16,1.32 -0.43,0 -0.12,2.05 -0.31,0.07 -0.31,0.07 -0.7,0.13zm13.82 -4.17c0,0 2.87,-0.73 3.58,0 0.86,0.93 0.15,2.98 0.15,5.37 -0.47,-0.34 -0.23,-0.47 -0.62,-0.87 -0.04,-0.06 -0.75,-0.53 -0.83,-0.59 0,-1.46 0.04,-1.72 -0.55,-2.59 -0.59,-0.86 -1.45,-0.92 -1.73,-1.32zm-3.1 1.06l-1.73 -1.06c0.16,-0.2 3.18,-0.27 3.62,0 -0.28,0.33 -0.48,0.33 -0.87,0.59 -0.35,0.27 -0.51,0.47 -1.02,0.47zm-3.22 -1.06c-0.24,0.33 -1.49,0.79 -1.61,0.79 -0.43,0 -1.65,-0.92 -0.67,-0.92 0.59,0 1.81,-0.14 2.28,0.13zm59.98 -2.79c1.33,0 1.37,2.92 4.95,2.39 2.4,-0.4 2.51,-3.98 3.42,-4.31l0.35 16.11c0,0.46 -0.28,0.66 -0.28,1.72 -0.86,-0.6 -0.7,-3.91 -3.37,-4.9 -1.93,-0.73 -3.54,2.31 -4.8,3.18 -1.17,-0.8 -1.65,-0.93 -2.04,-2.65 -0.47,-2.32 -0.63,-6.83 0.04,-9.15 0.24,-0.73 0.9,-2.39 1.73,-2.39zm-74.04 85.29c-0.59,0 -5.11,-1.73 -5.89,-2.06 -1.89,-0.73 -3.7,-1.46 -5.58,-2.32 -1.73,-0.73 -3.58,-1.72 -5.27,-2.58 -3.41,-1.86 -6.63,-3.85 -9.19,-6.76 -0.63,-0.73 -1.18,-1.46 -1.76,-2.25 -1.54,-1.93 -3.23,-5.83 -3.58,-8.35 -0.75,-4.97 -0.75,-13.12 -0.71,-18.56 0,-0.86 -0.04,-1.19 -0.11,-1.85 -0.12,-0.53 0.04,-0.93 -0.04,-1.72 -0.2,-2.46 0.04,-5.24 -0.12,-7.82 -0.12,-2.06 -0.35,-4.64 -0.2,-6.56 0.32,-4.04 -1.29,-27.44 -0.19,-29.16 0.15,2.06 1.53,5.7 2.82,6.96 3.34,3.25 4.83,-2.12 6.68,-1.2 1.3,0.8 2.28,12.99 -1.06,12.4 -1.02,-0.2 -1.88,-2.06 -3.02,-2.32 -5.27,-1.26 -5.35,11.53 -3.26,14.91 0.66,1.06 1.41,2.25 2.79,2.45 2.55,0.33 2.55,-1.33 3.53,-1.86 2.32,-1.32 2.79,5.57 2.55,7.42 -0.23,1.66 -0.23,3.12 -0.74,4.44 -0.63,1.66 -2.12,1.4 -3.26,0.34 -1.02,-1 -1.77,-1.86 -3.62,-1 -0.78,0.4 -1.53,2.59 -1.69,3.65 -0.54,3.18 -0.54,6.49 0.24,9.27 1.57,5.44 5.38,3.91 5.97,2.98 3.61,-5.83 9.51,9.94 4.24,10.01 -1.49,0 -2.59,-1.19 -4.24,-0.66 -1.3,0.4 -2.08,1.65 -2.2,3.18 -0.23,3.51 4.05,7.88 6.87,9.08 2.44,0.99 2.13,0.79 4.25,0.79 1.88,0.07 2.63,-0.79 3.26,-2.05 0.55,-1.06 -0.04,-2.72 -0.04,-4.64 1.61,-0.33 1.88,-0.33 3.57,0.33 1.18,0.4 2.24,0.93 3.18,1.66 1.14,0.79 5.74,3.57 2.13,4.9 -6.05,2.25 -2.24,6.16 0.62,7.49 0.4,0.13 2.99,1.32 3.07,1.46zm11.03 -97.94c-1.02,-0.33 -0.86,-0.33 -1.09,-0.73 0.19,-0.26 3.29,0.46 4.12,0.53 -0.12,0.53 0,0.27 -0.51,0.4 -0.79,0.2 -1.69,0.06 -2.52,-0.2zm1.58 -1.46c-0.47,0 -0.52,-0.4 -0.24,-0.73 0.75,-0.86 2.24,-0.53 3.26,-0.13 0.98,0.33 0.35,0.07 1.92,0.07l-2.7 0.66c-0.91,0.26 -1.07,0.13 -2.24,0.13zm-2.28 -2.91c0.51,0.39 0.12,0.53 0.39,1.19 0.2,0.46 0.35,0.59 0.39,1.19l-0.7 -0.46c0,0 -0.04,-0.07 -0.04,-0.07l-0.28 -1.26c0.08,-0.4 0.12,-0.13 0.24,-0.59zm-15.32 7.15c-0.12,-0.99 0.31,-1.06 0.39,-1.72 0.04,-0.6 -0.74,-0.86 -0.74,-1.39 0,-1.33 0.35,-1.13 0.59,-2.12 0.19,-0.86 -0.2,-0.93 -0.2,-1.79 0,-0.47 0.23,-0.73 0.67,-0.8 0.31,0.6 -0.04,0.8 0.35,1.39 0.2,0.34 0.59,0.53 0.59,1 0,0.53 -0.75,1.13 -0.71,1.99 0.04,0.66 0.67,0.99 0.98,1.65 -0.12,0.6 -0.55,0.87 -0.55,1.46 0,1.79 0.87,1.59 0.67,2.25 -0.04,0.93 -0.9,0.53 -0.9,1.79 0,1.79 1.61,1.2 1.61,2.39 0,0.6 -0.04,0.99 -0.71,1.19 0,2.05 0.32,0.93 0.75,1.99 0.51,1.33 -1.26,1.26 0.82,4.24 0.87,1.26 -0.08,1.39 -0.08,2.05 0,1.46 2.67,1.59 2.67,2.85 0,0.8 -0.35,0.8 -0.51,1.46 1.26,1.92 1.85,0.86 2.13,1.59l0.31 0c-0.08,2.45 0.2,1.13 0.63,2.98 -1.81,-0.39 -1.02,-1.79 -2.01,-2.45 -3.49,-2.32 -1.64,-3.24 -1.88,-3.84 -0.12,-0.53 -1.41,-0.73 -1.81,-1.39 -0.7,-1.13 -0.19,-1.46 -0.19,-2.52 0,-0.07 -1.34,-1.26 -1.34,-2.78 -0.08,-0.86 0.32,-1.86 0.27,-1.99 -0.39,-0.6 -1.09,-0.86 -1.09,-1.66 0,-0.53 0.27,-1.19 0.66,-1.32 0,-1.13 -1.33,-0.93 -1.33,-2.12 0,-2.79 0.71,-1.86 0.63,-2.79 -0.04,-0.59 -0.51,-0.53 -0.67,-1.59zm17.71 -7.55c0.04,-1.46 1.26,-2.12 2.28,-2.12 1.77,0 1.3,-0.14 2.44,1.39 0.43,0.6 1.14,0.93 1.33,1.52 -0.86,-0.06 -2.39,-0.13 -3.14,-0.33 -1.02,-0.4 -1.53,-0.46 -2.91,-0.46zm10.33 -1.86c0,-0.53 0.4,-0.46 1.03,-0.26 0.82,0.26 2.2,0.26 1.14,1.06 -1.03,0.73 -2.17,0.2 -2.17,-0.8zm-1.61 -1.26c0.08,-0.92 1.1,-1.06 2.13,-1.06 3.41,0 2.35,0.53 3.49,0.53 0.35,0 0.43,-0.26 1.34,-0.26 0.11,0.46 0.15,0.59 -0.16,0.93 -1.06,1.06 -2.67,-0.14 -3.46,-0.14l-3.34 0zm46.47 16.9c0,2.58 0.24,5.17 0.24,7.75l0.27 33.33c0,1.93 -0.08,3.91 0.04,5.77 0.04,1.39 -0.16,3.05 -0.16,4.97 0.08,11.99 -5.18,16.43 -14.53,20.14 -2.75,1.06 -5.69,2.32 -8.4,3.25 -5.39,1.85 -11.12,4.77 -16.38,7.09 -0.63,0.26 -1.42,0.46 -2.01,0.79 -0.98,0.47 -1.02,0.6 -2.12,0.07 -2.32,-0.99 -5.81,-2.91 -7.93,-3.64 -1.14,-0.47 -2.95,-1.2 -4.13,-1.79 -1.3,-0.6 -2.91,-1 -4.2,-1.53 -2.75,-1.19 -5.66,-2.05 -8.52,-3.18 -4.32,-1.72 -7.59,-2.91 -11.28,-6.23 -1.8,-1.65 -3.69,-4.5 -4.4,-7.29 -0.15,-0.79 -0.39,-1.45 -0.59,-2.18 -0.23,-0.86 -0.15,-1.26 -0.47,-2.25 -0.35,-1.26 -0.31,-3.91 -0.31,-5.5 0,-4.11 -0.28,-7.82 -0.28,-11l-0.51 -49.83c0.79,0.2 1.06,1.98 2.91,2.98 0.79,0.4 3.22,1.52 3.5,2.25 -1.89,-0.13 -4.84,-1.79 -4.84,-0.13 0,2.65 3.66,3.97 4.4,5.1 -0.7,0.33 -3.85,-0.73 -3.85,0.27 0,1.59 1.69,3.04 2.79,3.64 0.94,0.53 4.48,1.26 4.83,1.72 -0.51,0.73 -4.08,2.26 -5.22,2.65 -3.73,1.2 0.28,3.71 3.22,3.65l3.73 -0.33c-0.43,1.72 -6.95,5.36 -6.95,6.62 0,0.86 3.14,1.99 4.01,1.99 2.79,0 3.41,-0.93 4.83,-0.93 -0.16,2.12 -7.9,8.22 -7.9,8.55l0 0.4c0,0.86 3.18,0.93 3.85,0.93 2.08,0.06 3.5,-0.73 4.6,-0.8 -0.04,0.86 -3.22,4.31 -3.93,5.17 -0.71,0.86 -1.45,1.66 -2.12,2.45 -0.39,0.53 -2.2,1.99 -1.73,2.72 0.47,1.06 2.08,0.93 3.06,0.93 4.95,0 6.13,-2.92 9.27,-4.44 -0.03,1.65 -4.43,7.35 -5.77,9.01 -0.43,0.53 -2.28,2.05 -1.88,2.78 0.27,0.6 1.72,0.93 2.55,0.93 1.96,0 5.03,-2.05 6.13,-3.11 0.78,-0.8 4.04,-4.45 4.71,-4.64 0.35,0.26 2.16,3.38 2.16,3.77 0,1.26 -2.4,1.99 -2.71,3.32 0.71,0.79 2.04,0.79 2.04,1.45 0,1.06 -2.47,4.51 -3.34,5.44 -3.38,3.64 -2.43,-1.2 -3.38,-2.98 -1.02,-1.93 -2.71,-2.32 -4.94,-2.32 -2.01,0 -4.4,2.98 -3.07,3.51l0 0.2c3.07,-0.53 1.34,0.33 2.91,1.59 0.82,0.59 1.73,0.33 1.77,1.52 -4.21,0 -3.74,0.53 -4.83,3.38 -0.44,1.06 -1.03,1.72 -0.4,3.25 0.24,0.59 1.18,2.25 1.89,2.25 0.71,0 0.39,-1.92 1.73,-2.05 -0.28,1.19 -0.71,1.52 -0.4,2.71 0.36,1.13 0.79,1.33 1.38,2.26 1.14,1.85 1.61,2.71 4.63,2.71 0.28,-1.19 -0.78,-1.65 -0.78,-3.11 0,-0.4 0.66,-1.13 0.78,-1.72 0.2,-1.33 -0.27,-1.26 0.51,-2.06 0.75,-0.73 2.91,-1.32 4.17,-1.32 1.45,0 1.14,1.79 3.02,2.12 2.56,0.46 1.42,1.59 2.63,2.58 1.97,-0.13 1.81,-3.51 1.57,-5.03 -0.62,-3.72 -2.16,-2.99 -5.85,-2.99 -0.39,0 -0.67,-0.46 -0.67,-0.79 0,-1.13 3.38,-4.97 4.29,-4.97 0.39,0 0.59,0.4 1.17,0.53 1.54,-1.06 2.6,-4.24 4.44,-2.12l-1.49 1.72c0,2.25 1.61,1.33 2.55,2.25 -0.31,1.33 -2.94,3.18 -4.28,3.52 0,1.92 2.83,1.32 4.28,1.98 -0.04,2.46 -2.98,6.56 -5.34,6.56 -3.22,0 -3.42,-1.19 -4.44,-1.19 -1.26,0 -0.67,5.9 5.38,5.96 0.55,0 2.12,-0.46 3.07,-0.46l-0.63 2.92c0.23,0.06 0.47,0.13 0.51,0.13 1.14,0 3.73,-1.33 4.4,-1.33 0.67,0 1.26,2.45 2.08,3.71 2.63,3.91 2.83,4.38 5.34,0.14 0.36,-0.53 0.71,-1.2 0.95,-1.73 0.23,-0.59 0.27,-1.85 1.02,-1.85 0.98,0 2.67,0.79 3.61,0.79 0.47,0 2.51,-0.33 2.51,-0.79 0,-0.93 -0.47,-0.73 -0.51,-1.46 2.68,0 5.03,0 7,-1.59 3.22,-2.52 3.06,-7.22 1.17,-4.97 -1.17,1.39 -3.77,1.86 -5.57,1.46 -1.81,-0.4 -4.88,-3.25 -4.88,-5.5 0,-0.53 2.09,-1.13 2.72,-1.39 0.62,-0.33 2.12,-1.46 2.12,-2.19 0,-0.93 -4.64,-0.99 -4.84,-3.25 0.52,-0.2 2.95,-0.66 2.95,-1.19 0,-1.26 -1.49,-1.19 -1.49,-2.91 1.41,-0.4 1.18,0.13 2.04,1.39 0.39,0.59 1.18,2.78 1.85,0.99 1.69,0 4.99,2.78 5.1,4.31 -1.76,0.86 -5.61,-0.27 -5.61,3.05l0 2.71c0,0.73 1.33,2.92 2.12,3.32 0.78,-0.67 0.63,-1.33 1.14,-1.66 0.51,-0.4 1.37,-0.07 2.28,-0.66 1.49,-0.93 1.25,-2.79 3.41,-2.79 3.03,0 3.18,2.92 3.38,3.32 0.28,0.66 1.22,1.26 1.37,1.99 0.16,0.86 -0.47,1.78 -0.47,2.78 2.16,0 4.56,-2.06 4.56,-4.18 0,-1.19 -0.2,-0.86 0.28,-1.92 0.58,-1.32 -1.07,-2.38 -1.62,-3.44 3.89,0 1.3,2.85 3.62,2.85 0.55,0 1.22,-1.33 1.22,-1.93 0,-1.19 -0.04,-4.17 -0.55,-5.1 -0.44,-0.73 -1.61,-1.19 -2.83,-1.19 -0.51,0 -2.52,1.06 -2.52,-0.27 0,-0.39 0.87,-1.06 1.14,-1.39 0.91,-0.99 0.4,-1.39 1.93,-1.39 1.49,0 1.73,0.46 1.73,-1.06 0,-2.85 -4.95,-3.78 -7.51,-1.66 -1.41,1.13 -1.33,2.12 -1.33,4.05 0,0.59 -0.87,1.72 -1.73,1.72 -0.94,0 -3.89,-3.84 -3.89,-5.1l1.26 -0.4c0.24,-0.8 -2.28,-3.51 -2.67,-4.44 -0.47,-0.93 -0.16,-1.86 0.31,-2.65 1.38,-2.59 0.55,-3.71 4.09,-0.27 0.9,0.87 1.65,1.26 2.59,2.06 1.22,1.06 1.88,1.19 3.02,1.72 0.75,0.26 0.4,0.6 1.46,0.8 1.1,0.2 4.28,0.73 4.83,-0.54 0.51,-1.25 -9.43,-10 -9.78,-11.52 0.78,0.06 1.92,1.65 2.51,2.18 0.91,0.86 1.65,1.39 2.63,2.19 1.77,1.39 7.23,4.37 9.59,1.66 -0.28,-0.93 -4.56,-5.44 -5.46,-6.3 -0.91,-0.93 -1.89,-2.25 -2.71,-3.25 -0.79,-0.79 -2.56,-1.92 -2.83,-3.18 1.22,0 4.75,3.78 8.56,3.78 1.49,0 3.62,-1.19 3.42,-2.39 -0.08,-0.39 -2.59,-2.38 -3.1,-2.78 -1.1,-0.92 -5.42,-4.97 -5.54,-6.36 0.9,0.07 3.18,1.19 4.16,1.19 1.3,0 2.83,0 4.01,-0.66 0.59,-0.4 1.14,-0.79 1.33,-1.59 -0.07,-0.93 -7.34,-4.5 -7.5,-6.16 3.62,0 6.72,0.93 7.5,-2.59 -0.98,-1.45 -6.79,-3.11 -7.07,-4.24 1.58,-0.79 5.5,-0.13 6.64,-2.45 1.69,-3.58 0.79,-2.85 -1.69,-3.05 -0.82,-0.13 -2.04,-0.33 -2.94,-0.39 0.19,-0.53 3.02,-1.26 3.61,-1.99 0.9,-1.13 2,-2.19 2,-4.04 0,-0.4 -0.59,-0.6 -0.78,-0.53l-4.28 0.59 -0.04 -0.33c1.76,-0.4 4.48,-1.72 5.22,-3.38 0.28,-0.53 0.55,-2.25 0.55,-2.78 0,-1.33 -3.49,0.26 -4.4,0.26 0.47,-0.73 1.42,-0.86 2.01,-1.99 0.51,-0.92 1.1,-1.59 0.78,-2.98 -0.35,-0.06 -0.24,-0.13 -0.55,-0.13 0,0 -4.6,1.13 -5.14,1.26 -1.5,0.4 -4.76,0.13 -4.76,1.99 0,0.73 1.46,0.79 0.75,4.11 -0.08,0.39 0.75,0.99 0.75,3.11 0,0.27 -0.67,1.13 -0.67,1.59 0,1.13 1.69,1.46 -0.28,3.78 0.47,0.86 1.3,1.46 -0.04,3.18 -0.59,0.73 -0.23,1.52 -0.23,3.11 0,1.53 -1.61,1.92 -1.61,2.52 0,1.33 0.19,1.66 -0.71,2.65 -1.34,1.39 -0.35,1.06 -1.02,2.59 -0.39,0.99 -1.34,0.99 -1.49,2.12 -0.24,2.12 -1.77,1.92 -2.56,2.78 -0.15,0.2 -1.21,2.12 -1.73,1.66 -0.27,-0.27 0.32,-0.6 0.55,-1.06 0.91,-1.66 -0.27,-0.93 1.69,-1.99 1.26,-0.66 1.1,-0.8 1.1,-2.59 0.63,-0.39 1.89,-1.06 1.89,-1.85 0,-0.66 -0.51,-0.93 -0.28,-1.39 0.2,-0.67 1.77,-0.93 1.77,-1.59 0,-1.2 -0.55,-1.4 -0.55,-1.99 0,-0.6 1.89,-1.06 1.89,-2.85 0,-0.6 -0.51,-0.86 -0.83,-1.46 -0.08,-0.73 1.34,-0.93 1.34,-2.38 0,-0.27 -0.67,-1 -0.67,-1.33 0,-1.26 2.51,-0.6 0.27,-3.91 0.52,-1.92 2.56,-1.19 -0.27,-4.44 0.31,-0.6 0.98,-1.39 0.82,-2.05 -0.15,-0.73 -0.94,-1.59 -0.94,-2.19 0,-1.19 0.79,-1.92 0.79,-2.98 -1.18,0 -2.4,0.2 -3.62,0.33 -2.39,0.13 -2.9,0.07 -4.91,1.19 -0.66,0.33 -1.29,0.86 -1.72,1.46 -2.36,3.38 0.23,4.9 0.23,7.49 0,0.2 -1.26,2.45 -1.49,3.05 -0.55,1.45 -0.39,2.18 -0.75,3.84 -0.23,1.19 -0.63,2.45 -1.22,3.31 -1.17,1.72 -1.92,1.86 -3.92,1.86 -1.14,0 -3.26,-0.33 -3.34,-1.39l1.33 -0.47c0,-1.65 -2.75,-2.12 -1.88,-3.91 0.94,-0.2 2.2,0 1.92,-1.12 -0.15,-0.67 -1.02,-1.26 -1.1,-2.26 0.91,-0.92 2.44,-0.66 2.56,-2.12 -0.4,-0.13 -2.01,-1.85 -2.01,-2.25 0,-0.86 2.01,-1.13 2.01,-2.45 0,-0.8 -2.56,-1.39 -2.56,-2.52 0,-0.93 0.95,-1.06 0.95,-1.99 0,-0.66 -0.87,-0.79 -1.38,-1.06 -1.26,-0.66 -0.63,-0.13 -1.18,-1.26 0.67,-0.99 1.06,-1.52 1.06,-2.78 0,-0.79 -0.23,-0.79 -0.39,-1.32 -3.61,0.46 -4.08,0.66 -7.62,0.66 -0.39,0 -0.75,-0.27 -1.77,-0.27 -0.39,0 -0.12,0.2 -1.06,0.27 -3.26,0.13 -3.34,1.06 -4.99,1.99 -0.82,0.39 -1.02,0.26 -1.8,0.92 -0.75,0.67 -0.55,0.8 -1.65,1.2 -1.34,0.46 -2.71,0.86 -3.42,2.18 -0.75,1.33 -0.28,1.2 -1.65,1.2 -1.34,0 -3.18,3.64 0.28,5.89 1.21,0.73 2.31,0.73 4.28,0.8 1.45,0 1.53,1.32 2.94,1.99 1.14,0.53 2.67,0.79 4.01,1.06 -0.04,0.99 -1.42,1.45 -1.89,2.18 0.28,1.06 0.83,0.8 1.46,1.53l-2.01 1.59c0.32,1.19 0.99,0.66 1.5,1.39 -0.67,0.46 -0.67,0.4 -1.54,0.59 -1.17,0.34 -0.58,0.53 -0.58,1.46 0,0.34 -2.68,0.53 -3.11,0.53 -0.43,0 -0.94,-0.26 -2,-0.26 -1.53,0 -3.46,-1.39 -4.64,-2.19 -1.14,-0.73 -0.74,-1.99 -1.14,-3.18 -0.23,-0.73 -1.65,-2.25 -1.57,-2.98 0.32,-3.25 -0.15,-2.19 -0.15,-4.24 0,-0.53 0.82,-0.93 0.82,-2.98 0,-2.92 -2.87,-4.58 -5.5,-4.97 -1.02,-0.14 -2.55,0 -3.22,-0.07l-3.46 -0.53c-0.19,2.12 -0.55,1.52 -1.88,1.46 -4.24,-0.33 -9.9,-4.04 -9.9,-1.53 0,2.72 4.24,4.24 4.52,5.24 -0.75,-0.07 -2.95,-1.19 -3.34,-1.19 -0.67,0 -0.71,0.19 -1.34,0.26 -0.63,-2.72 -0.27,-2.85 -1.29,-6.29 -0.32,-1.06 -0.47,-2.06 -0.79,-3.12 -1.1,-3.77 -2.51,-3.51 3.3,-3.71l17.13 -0.13c3.41,0 8.32,0.26 11.23,0 5.07,-0.53 10.1,-0.07 14.73,0l31.46 0c1.97,0 4.32,-0.13 6.84,-0.13 1.61,0 6.44,-0.33 6.44,0.66 0,0.07 -1.53,4.9 -1.69,5.57 -0.27,1.05 -0.39,1.78 -0.67,2.91 -0.23,0.99 -0.19,2.25 -0.47,3.18 -0.47,1.86 -0.23,8.02 -0.23,10.6 -0.04,1.2 -0.28,1.86 -0.28,3.05zm-36.33 -38.96c-1.46,-0.53 -3.22,-0.66 -3.46,-1.06l29.19 0.13c1.57,0 0.94,-0.07 1.88,-0.13 1.57,-0.13 15.04,0.13 18.07,0.2l0 0.2c1.22,0 2.63,-1.2 3.77,0.92 1.1,2.06 2.08,3.18 3.38,5.04 1.02,1.39 4.91,5.7 4.91,6.36 0,0.93 -2.2,3.45 -2.87,4.57 -1.73,2.92 -3.57,7.22 -3.69,10.8 -0.04,1.46 -0.28,1.79 -0.28,3.38 0,0.87 0.08,2.85 -0.39,3.18 -0.16,-0.13 -1.14,-2.78 -1.33,-3.18 -0.99,-1.92 -1.93,-2.05 -3.5,-2.05 -0.67,0 -2.44,1.79 -2.79,1.79l-0.67 0c-1.76,0 -1.61,-4.24 -1.61,-5.5 0,-0.86 2.32,-8.15 4.4,-8.15 1.73,0 1.93,2.78 4.72,2.78 2.9,0 3.96,-4.44 3.69,-5.96 -0.12,-0.53 -0.12,-1.46 -0.2,-1.86 -0.31,-2.58 -2.16,-6.43 -3.81,-8.08 -0.82,-0.86 -3.61,-2.85 -5.07,-2.85 -1.92,0 -3.33,-0.33 -4.87,1.19 -0.27,0.27 -1.02,1.72 -1.02,2.19 0,1.79 2.16,3.05 0.51,4.37 -0.51,0.4 -3.89,1.19 -4.63,1.19 -1.18,0 -6.72,-0.33 -6.72,-1.98 0,-1.93 2.55,-1.66 2.55,-3.85 0,-1.79 -1.29,-2.71 -2.67,-3.11 -1.25,-0.4 -2.98,-1.06 -4.71,-1.06 -3.34,0 -11.23,0.06 -11.23,3.44 0,2.72 4.08,2.99 2.98,4.91 -0.47,0.79 -1.61,1.26 -2.59,1.39 -4.99,0.79 -3.22,0.13 -5.62,0.13 -1.88,0.07 -4.24,-0.06 -5.34,-1.72 0.35,-1.46 0.98,-1.66 1.81,-2.72 0.74,-0.99 0.7,-2.25 -0.04,-3.18 -0.51,-0.66 -1.93,-1.39 -2.75,-1.72zm-32.25 -1.06c4.04,-0.33 4.71,-0.4 8.72,-0.4l14.34 0.4c-0.28,0.99 -6.72,0.59 -6.72,4.11l0 0.99c0,1.33 1.88,1.79 2.44,2.78 0.35,2.72 -14.74,3.32 -14.74,0.27 0,-2.52 4.37,-2.65 1.85,-5.5 -1.1,-1.26 -3.69,-2.32 -5.89,-2.65zm-32.13 35.98c-0.43,-1.86 -0.16,-3.78 -0.43,-6.1 -0.16,-1.12 -0.24,-1.92 -0.4,-3.11 -0.07,-0.73 -0.47,-1.79 -0.66,-2.65 -0.59,-2.45 -1.73,-5.24 -3.07,-7.29 -0.23,-0.33 -0.31,-0.66 -0.59,-1.13 -0.23,-0.39 -0.43,-0.46 -0.7,-0.86 -2.16,-3.31 -2.6,-2.58 -1.22,-3.97 1.18,-1.13 2.47,-2.06 3.5,-3.38 1.02,-1.26 2.19,-2.26 3.06,-3.72 0.39,-0.66 2.63,-3.57 2.67,-4.04 3.5,0 25.73,-0.26 26.79,0.4 -0.67,0.13 -2.2,0.27 -2.83,0.4 -2.12,0.33 -5.34,1.26 -5.34,3.91 0,1.46 2.39,2.32 2.39,3.44 0,2.72 -8.36,2.99 -11,2.06 -4.36,-1.66 -0.39,-3.38 -0.39,-5.1 0,-3.58 -5.58,-4.51 -8.64,-2.39 -2.79,1.99 -1.18,0.66 -2.91,2.58 -3.53,3.98 -4.43,12.26 -0.23,15.44 0.27,0.2 1.81,0.93 2.16,0.93 0.59,0 2.12,-0.73 2.51,-1.06 2.52,-2.25 3.81,-0.99 4.87,2.12 0.91,2.65 1.06,4.11 1.06,6.69 0,1 -0.82,3.72 -2.55,3.12 -1.26,-0.47 -1.53,-2.19 -3.61,-2.19 -1.77,0 -2.24,1.06 -2.99,2.26 -0.59,0.99 -0.98,3.18 -1.45,3.64zm59.74 107.81l0.51 0c1.81,-1.59 5.5,-3.58 7.78,-4.84 1.49,-0.79 12.96,-5.7 15.52,-6.56 0.74,-0.26 1.37,-0.73 2.04,-0.99 1.57,-0.6 2.98,-1.2 4.48,-1.86 1.53,-0.66 2.94,-1.06 4.47,-1.65 1.54,-0.67 2.87,-1.33 4.44,-1.86l4.17 -2.12c2.16,-0.99 5.85,-3.64 7.38,-5.24 3.5,-3.77 1.81,-2.05 4.09,-5.43 0.55,-0.79 0.59,-1.19 1.06,-1.99 1.37,-2.71 2.08,-6.29 2.59,-9.87 0.27,-1.72 0,-4.31 0.27,-6.03 0.36,-2.25 0.28,-9.41 0.24,-12.06 0,-1.92 -0.28,-3.38 -0.28,-5.76 0,-4.31 0.24,-13.45 -0.27,-17.83 -0.35,-3.44 0.43,-9.87 -0.12,-12.06 -0.23,-0.79 -0.16,-3.91 -0.16,-5.63 0,-4.44 -0.03,-13.52 1.14,-16.96 1.06,-3.05 1.46,-5.57 4.01,-8.55 0.67,-0.8 2.75,-2.65 3.02,-3.12 -0.31,-1.19 -2.59,-1.45 -4.9,-5.7 -0.36,-0.66 -2.6,-3.31 -3.34,-4.5 -0.36,-0.53 -0.59,-1.13 -0.95,-1.59 -2.94,-4.18 -0.11,-3.31 -7.26,-3.31 -17.25,0 -34.02,-0.27 -51.42,-0.27 -13.51,0 -27.85,0 -41.75,0l-14.62 -0.2c-2.43,0 -2.98,4.18 -7.42,8.42 -0.98,0.92 -4.48,4.57 -5.58,4.9 0,1.59 1.22,2.12 2.63,3.91 0.91,1.26 1.77,2.65 2.52,4.04 1.37,2.39 2.79,6.56 3.14,9.81 0.12,0.99 0.16,5.7 0.08,6.36l0.63 23.26c0,2.45 0.27,4.04 0.27,6.29 -0.04,4.24 0.32,8.88 0.12,12.06 -0.2,3.91 0.28,6.56 0.28,11.07 0,4.77 0.27,7.88 0.27,12.46 0,7.48 3.65,15.04 7.97,18.15 0.71,0.53 0.95,1.06 1.73,1.59 1.93,1.39 3.65,2.72 5.93,3.85 1.5,0.73 2.6,1.45 4.36,2.18 1.5,0.6 3.03,1.33 4.48,1.99 2.04,0.99 6.29,2.19 9.51,3.65 1.49,0.66 3.14,1.19 4.71,1.85 1.53,0.6 2.99,1.19 4.52,1.85 2.43,1.07 6.75,3.12 9.03,3.98 2.75,1.06 4.28,2.12 6.48,3.25 0.48,0.26 1.81,0.79 2.2,1.06z"/>
 </g>
</svg>
