<svg width="0" height="0" class="hidden">
  <symbol xmlns="http://www.w3.org/2000/svg" fill="currentColor" viewBox="0 0 16 16" id="arrow">
    <path fill-rule="evenodd"
      d="M12 8a.5.5 0 0 1-.5.5H5.707l2.147 2.146a.5.5 0 0 1-.708.708l-3-3a.5.5 0 0 1 0-.708l3-3a.5.5 0 1 1 .708.708L5.707 7.5H11.5a.5.5 0 0 1 .5.5z">
    </path>
  </symbol>

  <symbol xmlns="http://www.w3.org/2000/svg" fill="currentColor" viewBox="0 0 16 16" id="arrow-down">
    <path
      d="M7.247 11.14 2.451 5.658C1.885 5.013 2.345 4 3.204 4h9.592a1 1 0 0 1 .753 1.659l-4.796 5.48a1 1 0 0 1-1.506 0z" />
  </symbol>

  <symbol fill="none" xmlns="http://www.w3.org/2000/svg" viewBox="0 0 14 24" id="slider-arrow">
    <path d="M1 1L13 11.2667L1 23" stroke="white" stroke-width="2" stroke-linecap="round" stroke-linejoin="round">
    </path>
  </symbol>


  <symbol xmlns="http://www.w3.org/2000/svg" fill="currentColor" xml:space="preserve" viewBox="0 0 563.6 960"
    id="wappen">
    <path
      d="M177 806c0-2 4-3 4-1 0 5-1 2-2 5l-2-4zm227-3-2-1c0-5 4-9 4-3 0 3-1 3-2 4zm-235-8c0-9 7-8 9-7l2 1c1 2 3 8-4 9-4 0-7-1-7-3zm231-4c-3 0-3 0-4-3 4-4 11-4 11-1 0 2 0 1-2 2l-1 1-4 1zm-172-5 2-3c4 0 3 7 3 10-3 0-2 0-4-6-1-1-1 1-1-1zm117-2c0-4 4-3 5-1 2 1 1 1 1 4l-1 2-3 2c-2-3-1-2-1-5s-1 1-1-2zm-188 0c-3 0-3-4-2-6 2-3 7-3 7 0l-5 6zm62-1c0-4 2-7 5-7 4 0 5-1 7 1-1 3 0 2-5 3-4 2-2 3-7 3zm129-11c4-1 2 0 5 1 5 1 3-1 6 3 2 2 2 1 2 5-5 0-4-2-10-3l-3-2v-4zm70 0c0-2 2-2 4-2 1 3 3 6 0 8l-4-6zm-255-5 3 1c3 2 1 4 1 5-6-1-8-6-4-6zm249 2c-3 0-1-8 4-8s0 8-4 8zM180 899c8 0 17 4 26 2 22-7 6-25 6-25-5-11 17-9 29-3l17 11c2 2 5 5 3 10-1 4-5 4-9 6-13 5-12 21 11 28 8 3 13 4 23 4l13-1 11-3c8-3 12-6 15-14 4-13-7-15-10-17-6-5 6-14 8-17l19-10c7-2 20-3 18 8-1 5-8 15 1 20 8 6 24 1 33-3l10-5c7-4 11-5 15-13s-1-14-8-17c-3-2-8-1-9-5 0-3 4-7 6-8 5-4 11-8 18-11 6-2 16-4 21 1 5 7-8 11-2 20 3 6 14 7 20 4 7-2 12-7 18-11 20-14 26-52-4-42-12 4-11-5-11-15-1-6 9-34 22-34l3 6c6 18 24 8 26-21h1l1 16-1 18c-1 12-4 21-6 31-4 18-18 35-30 45-29 24-64 33-100 49-25 10-54 22-77 35-13 7-17 13-25 8l-50-24-26-11-26-12zm171-156c1-2 1-1 3-2s2-3 2-3c8 0 12 21 25 21 8 0 9-8 12-11 2 1 3 2 3 4-1 4-2 3-2 8 0 4 5 1 8 3-1 6-14 2-14 8 0 3 7 5 7 9-5 3-8-1-14-3-6-3-16 1-16-4 0-3 6-2 6-7 0-10-16-16-20-23zm-147 24c0 6 5 6 6 10-4 2-9 2-14 3-4 1-9 4-13 2 1-6 11-5 11-11 0-5-16 1-19-4l7-3c0-6-4-14-9-16l5-7c9 2-2 22 14 22 4 0 13-8 14-11 6-8 6-14 13-14 10 0-15 19-15 29zm-44-28c0-4 7-4 8-3 5 1 3 4 0 6l-8-3zm234-1c0-2 1-3 3-4l2 3c2 2 4 3 0 5l-3-1c-2-1-2-1-2-3zm10-7c2-1 4-2 9-1l2 2c-3 0-3 1-4 2l-3 1c-4 1-4 0-4-4zm-87-22v-19l1-3c0-14-16-10-16-4v25c-7-1-6-3-6-10v-25c1-4-4-5-1-6l8-2c53 0 41-1 41 12v9c0 5 1 16-3 16-9 0 1-24-7-24h-7c-7 0 1 34-5 34-2 0-5 0-5-3zm-31-44 1-7h2v11c0 6 2 4 2 9 1 38-4 36 12 36 10 0 1-23 7-27 5 2-1 26 3 29l14 2c5 0 1-21 3-31 3 1 3 7 3 10 0 13-5 12 10 15-1 5-15 14-20 17-7 5-17 6-24 7l-4 1c-7 0-6-3-6-12l-3-60zm-37 49c4 8-2 12 9 16l19 6v1c-13 0-17-3-29-8-6-2-13-8-17-13l-4-5-8-11c-4-6-3-6-6-14-2-8-6-22-4-30l3 16 5 14c3 5 10-1 11 7l1 19 20 2zm83-60c0-3 2-4 6-4 7 0 7 8 2 11h-2l-5-2-1-5zm-33 7c-3 0-5-2-6-4-2-5 3-10 7-7 4 2 6 11-1 11zm18 0c-4 0-6-11 0-11 3 0 5 1 6 3v1c2 8-2 7-6 7zm-107-7v1c-2-1-2 0 0-1zm22 4c-1-5 0-8 1-12h46c4 2 3 16 3 20v22l-1 17c-3 2-9 2-10-2-2-16 1-19-8-19l-6-1c-4 0-3 0-4-3-3-10 5-17-10-18-3 0-10 0-11-4zm75-8 1-2c1-1 2-1 2 1v1h-3zm-19 0c0-2 0-2 2-3v2l-1 4-1-3zm66 20c0-4 0-7-2-9-3-3-3-1-4-6 0-3-3-5-3-7l4-1c4 0 9-1 9 4l-2 25c0 8-2 12-4 19h-2l-1-19c0-3 4-1 5-6zm-26-20-1-2h3c0 2 0 1-2 2zm159 62c-15 0-12-58 1-58 3 0 10 12 13 12h4c4 0 8-6 9-9l5-12 2 51-1 29-5-16c-2-4-6-10-11-10-9 0-13 13-17 13zm-188-71c-14 0-13-2-13-16 1-8-2-24 5-24 17 0 9 5 13 19l8 2 9 1 1 10c1 6-1 4-1 8h-22zm-25-15v-24c0-6-1-7 2-10 3-2 3-4 3-9h1l1 30c0 7 2 23-1 26-4 5-68 0-70 0-4-3-2-14-2-21l-1-19 1-4c0-2-1-3 1-3 5 0 4 5 4 9v26c5 2 13 3 18 0v-17c0-7 1-4 2-7h1c2 6-1 30 3 33 3 3 14 2 16-1l1-11v-17c0-2 1-3 2-3v19c0 3 2 5 5 5 6 0 9 1 13-2zm-38-32c-12 0-9 2-9 15 0 10 2 13-7 12l-2-19 1-10c0-5-3-5-3-8h45c15 0 8 0 8 4v34h-7l-1-14c-1-5 3-14-5-14-10 0-7 7-7 15 0 7 2 22-5 22-6 0-4-18-4-22v-14l-4-1zm20-23c0-7 9-6 11-3l1 4c0 7-10 7-12 1v-2zm-16 6c-6 0-7-11-2-11 3 0 7-1 9 3l1 2c0 7-3 6-8 6zm-19 0c-6 0-7-8-5-10 10-6 15 10 5 10zm113-18c29 0 23-9 23 57l1 7c0 3 0 12-2 13-4-1-3-10-3-13 0-11-5-4-8-9-1-5 1-12-1-16-4-6-19 1-19-7 0-4 1-12-2-15-2-2-11-1-15-3-2-12 0-12-18-12 14-3 5-1 11-1h2l31-1zm-127 18v-5c0-4-4-12 3-12 3 0 6-1 4 2s-3 1-3 6c-1 6-2 0-1 9h-3zm57-17s12-3 15 0c3 4 0 12 0 22-2-1-1-2-2-3l-4-3c0-6 1-7-2-10-2-4-6-4-7-6zm-13 5-7-5h15l-4 3-4 2zm-13-5c-1 2-6 4-7 4s-6-4-2-4h9zm246-11c6 0 6 12 21 10 10-2 10-17 14-18l1 66-1 7c-3-2-3-16-14-20-8-3-14 10-19 13-5-3-7-4-9-11-2-9-2-28 0-37 1-3 4-10 7-10zM180 899l-24-8-23-10-21-11a131 131 0 0 1-45-37c-7-7-14-24-15-34-3-20-3-54-3-76v-8l-1-7v-32c-1-8-2-19-1-27 1-16-5-112-1-119 1 8 7 23 12 28 14 13 20-9 27-5 6 3 10 54-4 51-4-1-8-8-12-9-22-6-22 47-14 61 3 4 6 9 12 10 10 1 10-6 14-8 10-5 12 23 11 31l-3 18c-3 7-9 6-14 1-4-4-7-7-15-4-3 2-6 11-7 15-2 13-2 27 1 38 7 23 22 16 25 12 15-23 39 41 17 42-6 0-10-5-17-3-5 1-9 7-9 13-1 14 16 32 28 37 10 4 9 3 17 3 8 1 11-3 14-8 2-4 0-11 0-19 6-1 7-1 14 1 5 2 10 4 13 7 5 3 24 15 9 20-25 10-9 26 3 31l12 6zm46-402-5-3c1-1 14 2 17 2 0 2 0 1-2 2l-10-1zm6-6c-2 0-2-2-1-3 3-4 9-2 14-1 4 2 1 1 7 1l-11 2-9 1zm-9-12c2 2 0 2 1 5 1 2 2 2 2 5l-3-2-1-6 1-2zm-63 29c-1-4 1-4 1-7 1-2-3-3-3-6 0-5 2-4 3-8s-1-4-1-8c0-1 1-3 3-3l1 6c1 1 3 2 3 4s-3 5-3 8 2 4 4 7c-1 2-3 3-3 6 0 7 4 6 3 9 0 4-3 2-3 8 0 7 6 4 6 9 0 3 0 4-3 5 0 9 2 4 3 8 2 6-5 6 4 18 3 5-1 5-1 8 0 6 11 7 11 12l-2 6c5 8 8 3 9 6h1c0 11 1 5 3 13-8-2-4-8-8-10-15-10-7-14-8-16s-6-3-8-6c-2-5 0-6 0-10 0 0-6-5-6-12l1-8c-1-2-4-3-4-7l2-5c0-5-5-4-5-9 0-11 3-7 3-11-1-3-3-2-3-7zm73-31c0-6 5-8 9-8 7 0 5-1 10 5 2 3 5 4 5 7l-12-2-12-2zm42-7c0-3 2-2 4-1 4 1 9 1 5 4s-9 1-9-3zm-7-6c1-3 5-4 9-4 14 0 10 2 14 2l6-1c0 2 1 3-1 4-4 4-11-1-14-1h-14zm191 70 1 32 1 137v44c0 49-21 67-60 82l-34 14c-22 7-46 19-68 29l-8 3c-4 2-4 3-9 0-9-4-23-12-32-15l-17-7-17-6-35-13c-18-7-31-12-47-26-7-7-15-18-18-30l-2-9-2-9c-2-5-1-16-1-23l-1-45-3-204c4 0 5 8 12 12 4 1 14 6 15 9-8 0-20-7-20 0 0 10 15 16 18 21-3 1-16-3-16 1 0 6 7 12 12 15 3 2 18 5 19 7-2 3-16 9-21 11-15 4 1 15 13 14l16-1c-2 7-29 22-29 27 0 4 13 8 16 8 12 0 14-3 20-3 0 8-32 33-32 35v1c0 4 13 4 16 4 8 0 14-3 19-3-1 3-14 18-17 21l-8 10c-2 2-9 8-7 11 2 5 8 4 12 4 20 0 25-12 38-18 0 7-18 30-23 37-2 2-10 8-8 11 1 3 7 4 10 4 8 0 21-8 25-13 4-3 17-18 20-19l9 16c0 5-10 8-11 14 2 3 8 3 8 5 0 5-10 19-14 23-14 15-10-5-14-12-4-8-11-10-20-10-8 0-18 12-13 14v1c13-2 6 2 12 7 4 2 7 1 8 6-18 0-16 2-20 14-2 4-4 7-2 13 1 3 5 10 8 10s2-8 7-9c-1 5-3 6-2 11 2 5 4 6 6 9 5 8 7 12 19 12 1-5-3-7-3-13l3-7c1-6-1-5 2-9 3-3 12-5 17-5 6 0 5 7 13 9 10 2 5 6 10 10 9 0 8-14 7-20-3-16-9-13-24-13-2 0-3-2-3-3 0-5 14-20 18-20l5 2c6-5 10-18 18-9l-6 7c0 9 6 6 10 9-1 6-12 13-17 15 0 8 11 5 17 8 0 10-12 27-22 27-13 0-14-5-18-5-5 0-3 24 22 25l13-2-3 12h2c5 0 16-5 18-5 3 0 5 10 9 15 11 16 11 18 22 0l4-7c1-2 1-7 4-7l15 3c2 0 10-1 10-3 0-4-2-3-2-6 11 0 21 0 29-7 13-10 12-29 4-20-4 6-15 7-22 6-8-2-20-13-20-23 0-2 8-4 11-5 2-2 8-6 8-9 0-4-19-4-19-14 2-1 12-2 12-5 0-5-6-5-6-12 5-1 4 1 8 6 1 3 5 12 7 4 7 0 21 12 21 18-7 3-23-1-23 12v12c0 3 6 12 9 13l5-7c2-1 5 0 9-2 6-4 5-12 14-12 13 0 13 12 14 14l6 8-2 11c9 0 18-8 18-17 0-5 0-3 2-8s-5-9-7-14c16 0 5 12 15 12 2 0 5-6 5-8 0-5 0-17-2-21-2-3-7-5-12-5-2 0-10 5-10-1 0-2 3-4 4-6 4-4 2-5 8-5s7 2 7-5c0-11-20-15-31-7-5 5-5 9-5 17 0 3-4 7-7 7-4 0-16-16-16-21l5-1c1-4-9-15-11-19-2-3-1-7 1-11 6-10 3-15 17-1l11 9 12 7 6 3c5 1 18 3 20-2s-39-41-40-47c3 0 8 6 10 9l11 9c7 5 30 18 39 6-1-3-18-22-22-25l-11-14c-3-3-11-8-12-13 5 0 20 16 35 16 6 0 15-5 14-10 0-2-10-10-12-12-5-3-23-20-23-26 4 1 13 5 17 5 5 0 12 0 16-3 3-1 5-3 6-6 0-4-30-19-31-25 15 0 28 3 31-11-4-6-28-13-29-17 6-4 22-1 27-10 7-15 3-12-7-13l-12-2c1-2 13-5 15-8 4-4 8-9 8-16 0-2-2-3-3-3l-18 3v-1c7-2 19-8 22-14l2-12c0-5-14 1-18 1 2-3 6-3 8-8 2-4 5-6 3-12l-2-1-21 6c-6 1-20 0-20 8 0 3 6 3 3 17 0 1 4 4 4 12l-3 7c0 5 7 6-1 15 2 4 5 6 0 13-3 3-1 7-1 13 0 7-7 8-7 11 0 5 1 6-3 10-5 6-1 5-4 11-2 4-6 4-6 9-1 9-8 8-11 11 0 1-5 9-7 7-1-1 1-2 2-4 4-7-1-4 7-8 5-3 5-4 5-11 2-2 8-4 8-8 0-2-3-4-2-5 1-3 8-4 8-7 0-5-3-6-3-8 0-3 8-4 8-12l-3-6c-1-3 5-4 5-10l-2-5c0-5 10-2 1-16 2-8 10-5-1-18 1-3 4-6 3-9s-4-6-4-9c0-5 3-8 3-12l-15 1c-9 1-11 1-20 5l-7 6c-9 14 1 20 1 31l-6 13-3 15-5 14c-5 7-8 8-16 8-5 0-14-2-14-6l6-2c0-7-12-9-8-16 4-1 9 0 8-5-1-2-4-5-5-9 4-4 10-3 11-9-2 0-8-7-8-9 0-4 8-5 8-10 0-3-11-6-11-10s4-5 4-9c0-2-3-3-6-4-5-3-2 0-4-5 2-4 4-6 4-11 0-4-1-4-2-6-14 2-16 3-31 3l-7-1-5 1c-13 0-13 4-20 8-3 2-4 1-7 4l-7 5c-6 2-11 3-14 9-3 5-1 5-7 5-5 0-13 15 1 24 5 3 10 3 18 3 6 0 6 5 12 8l16 5c0 4-6 6-7 9 1 4 3 3 5 6l-8 6c2 5 4 3 6 6-2 2-2 2-6 2-5 2-2 3-2 6 0 2-11 3-13 3l-8-1c-7 0-14-6-19-9s-3-9-5-13c-1-3-7-10-6-13 1-13-1-9-1-17 0-2 3-4 3-12 0-12-11-19-22-21h-14l-14-2c-1 8-2 6-7 6-18-2-41-17-41-7 0 12 17 18 18 22-3 0-12-5-13-5l-6 1c-2-11-1-12-5-26l-3-12c-5-16-11-15 13-16h117c21-2 41-1 60 0h129l28-1c7 0 27-1 27 3l-7 23-3 12-2 13c-2 7-1 33-1 43l-1 13zM310 374l-14-4h202v1c5 0 10-5 15 4l14 21c4 5 20 23 20 26 0 4-9 14-12 19-7 11-14 29-15 44l-1 14c0 3 0 11-2 13l-5-13c-4-8-8-9-14-9-3 0-10 8-12 8h-3c-7 0-6-18-6-23 0-3 9-33 18-33 7 0 8 11 19 11 12 0 17-18 15-24v-8c-2-11-9-26-16-33-3-4-15-12-21-12-8 0-14-1-20 5l-4 9c0 7 9 12 2 18-2 2-16 5-19 5-5 0-28-2-28-8 0-8 11-7 11-16 0-8-5-11-11-13-5-2-12-4-19-4-14 0-47 0-47 14 0 11 17 12 13 20-2 3-7 5-11 6-20 3-13 0-23 0-8 0-17 0-22-7 1-6 4-7 7-11 4-4 3-9 0-13-2-3-8-6-11-7zm-132-4c16-2 19-2 35-2l59 2c-1 4-27 2-27 16v4c0 6 7 8 10 12 1 11-61 13-61 1 0-10 18-11 8-23-5-5-15-9-24-10zM46 517c-2-7-1-15-2-25l-2-13-2-10c-3-11-8-22-13-30l-2-5-3-4c-9-13-11-10-5-16 4-4 10-8 14-14l13-15 11-17c14 0 105-1 110 2l-12 2c-9 1-22 5-22 16 0 6 10 9 10 14 0 11-35 12-45 8-18-6-2-14-2-21 0-14-23-18-35-9-12 8-5 2-12 10-15 17-19 51-1 64l9 3 10-4c10-9 15-4 20 9 4 11 4 17 4 27 0 4-3 15-10 13-5-2-7-9-15-9-7 0-9 4-12 9-3 4-4 13-6 15zm245 443h2c7-7 23-15 32-20l64-27 8-4 19-8 18-6 18-8 17-9c9-4 24-15 31-21 14-16 7-9 16-22l5-9c5-11 8-25 10-40l1-25c2-9 2-39 1-49l-1-24c0-18 1-55-1-73-1-14 2-41 0-50l-1-23c0-18 0-55 5-70 4-12 6-22 16-35l13-13c-2-4-11-6-21-23l-13-18-4-7c-12-17-1-14-30-14l-211-1H53c-10 0-12 17-30 34-4 4-18 19-23 20 0 7 5 9 11 16l10 17a118 118 0 0 1 13 66l3 96 1 26 1 49c-1 16 1 27 1 46l1 51c0 30 15 62 33 74 2 2 3 5 7 7l24 16 18 9 18 8 39 15 20 7 18 8 37 16c12 5 18 9 27 14l9 4zM322 309l10 1h19l9 1 18 2 36 5c4 0 31 4 33 6 3 3 1 13-1 16-2 2-49-7-57-7l-19-2c-13-2-28-1-41-2-31-2-109-2-132 1h-9l-9 1-54 6v1c-4 0-5-9-5-12 0-6 17-5 27-8 7-2 55-6 60-6l24-2 5-1h86zm-87-41c5 0 12-12 34-16l14-2c8 0 20 3 28 7 4 2 7 3 10 6 3 1 7 5 10 5l20-8a82 82 0 0 1 62 8c6 3 9 8 15 3 8-7 14-7 23-7 4 0 11 3 11 7l-4 15c-2 4-7 29-9 29-11 0-24-5-34-5-5-1-12-1-17-3l-17-1c-9-2-22-2-33-3l-9-1h-18l-9-1h-67l-26 2-6 1h-7l-26 2-12 2-27 2c-4 2-8 2-13 2s-8 3-10-2c-3-6-5-16-7-23l-4-10-4-10c0-4 7-8 9-8 13 0 16-1 27 10 7 7 7 4 16-2 9-5 29-11 41-11l21 4 18 8zm0-21 14-8 16-6c16-4 39-1 53 6 20 12 8 8 29 3 16-4 20-3 37-3 13 0 37 13 38 13s16-9 29-10l16 4c15 8 8 15 5 15-12 0-14-5-26-5-10 0-19 8-21 8-4 1-8-2-10-4l-11-4-12-3c-17-3-4-3-25-3l-5 1c-5 0-9 1-14 3l-16 6c-4 0-8-4-11-6l-11-5c-19-8-47-8-65 4l-9 6c-6 0-17-10-41-10-19 0-27 6-39 10-4 1-7 5-10 5s-14-13-27-13h-8c-6 0-14 9-18 9s-4-7-4-9c3-7 12-12 20-12l5-1c7 0 15 2 22 6 6 3 8 8 15 3l16-8 10-2c15-1 14-2 30 1 13 2 24 9 28 9zm246-8c0-3 2-7 7-7 12 0 10 11 7 14-7 5-14 1-14-3v-4zM76 229l5 3c4 4 2 13-6 12-12 0-9-15 1-15zm192-6c-2 1-3 1-3-3 3 1 2 1 3 3zm27-5 1 3-2 1c-1-1-1 1-1-2l2-2zm205 8c-6 0-9-3-9-9 0-7 10-11 16-7 3 3 6 16-7 16zm-438-3c-4 0-8-6-7-10 1-5 9-11 14-4 6 7-1 14-3 14h-4zm218-3-5-2c-6-5 1-20 10-10 4 3 4 12-5 12zm219-29 2-4c4-3 5-2 9-2 2 0 6 4 6 9-1 11-17 10-17 1v-4zm-450-1c0-7 5-7 9-7 5 0 8 8 5 13-3 4-14 5-14-6zm224-2c0-9 16-7 16 1 0 10-16 12-16-1zm233-11c-7 0-11-9-6-14 3-3 6-3 9-3s6 4 6 5v4c0 2-2 8-9 8zm-227-3-4-3c-3-3-2-8 1-10 12-9 20 13 3 13zM48 164c0-10 15-10 17-1 2 14-17 15-17 1zm440-21c0-2 2-4 3-5 9-5 15 3 15 8 0 4-5 9-9 9-8 0-9-7-9-12zm-224 67c-3-5-3-11-4-17l-9-32-5-15c0-4 9 3 10 4l12 6c-1 8-5 7-1 17 4 7-2 7-2 17 0 5 3 6 3 10s-4 9-4 10zm28-31c0-2 5-5 4-14-1-6-5-8 2-12l12-6c8-6 5 1 4 6-7 18-12 37-16 57-3-1-5-5-5-8s4-5 3-12c0-3-4-11-4-11zm-10-26-7-3c-4-3-3-14 7-14 8 0 9 11 5 14l-5 3zM59 141c0-2 2-4 3-5l2-1c6 0 9 2 9 7 0 10-14 10-14 2v-3zm282 17c1-11 9-10 18-12 18-3 47-14 65-15l6-1c11 0 18 0 29 6 7 3 8 4 13 8 7 5 15 18 16 29 1 15 0 24-5 37-2 5-13 25-18 25-4 0-5 1-8-1 0-2 10-14 15-24 9-19 9-41-6-57-12-11-26-11-41-11-9 0-32 5-39 8-6 2-32 9-37 9l-8-1zM97 232l-8-11c-7-10-14-29-14-42 1-21 14-38 29-45 29-13 61 4 91 10l17 3c3 0 5 0 7 2l2 7c0 4-9 1-14 1l-10-3-20-4-20-6c-4-2-16-4-21-4-15 0-27 0-39 12s-14 32-9 49c2 7 7 15 10 21 2 2 6 6 5 9l-6 1zm148-26c-3-14-10-39-16-52-1-4-9-20-9-24 13-5 16 13 18 18l9 25c2 7 11 48 8 55-7 3-7-3-7-8l-3-14zm60 12 2-13c0-4 8-32 10-36l8-23 5-11 3-4 6-2c7 0-2 12-3 17l-2 6-9 24-4 13-4 12c-2 9-3 19-7 25-6 0-5-3-5-8zm-110-93c0-6 8-12 13-4l2 8c0 7-15 9-15-4zm159 2c0-3 3-6 4-7 6-4 13 5 7 11-2 3-11 6-11-4zm118-1c0-7 11-11 15-5 2 2 3 7 1 10-1 2-8 8-14 1-2-2 0 0-1-3l-1-3zm-399-3c0-4 6-7 8-7 5 0 9 5 9 10l-3 5-5 2c-5 0-9-3-9-5v-5zm98-5c0-5 14-11 16 1 0 3-3 9-6 9s-5 0-8-2c-2-2-2-5-2-8zm204 0c0-4 10-9 15-3 1 1 2 4 1 6l-2 4c-1 1-3 3-5 3-9 0-9-4-9-10zm73-5c0-4 5-7 9-7 12 0 11 17 0 17-7 0-9-4-9-10zm-49 2c0-16 25-9 14 4-5 6-14 1-14-4zm-296 7a8 8 0 0 1 1-16c11 0 11 16-1 16zm43-8 1-6c2-4 10-6 14 0l2 5c0 4-3 9-7 9h-4c-1 0-6-3-6-8zm277-5 4-5c5-5 13 1 13 4v4c0 8-11 9-14 5-3-3-3-5-3-8zm-301 1c0-8 9-9 13-5 2 1 3 3 3 6-1 9-16 11-16-1zm121-2c0-5 28-2 30-6V85c0-6-1-13 5-13h11c2 10-2 24 3 32l4-1h16c10 0 8 13 7 15h-59l-4 1c-10 0-13 3-13-11zm26-98c0-2 2-2 4-2 5 0 17-1 17 2 0 1-8 22-2 21l19-2c2-1 2 12 2 13 0 8-11-1-22 1l2 20h-18c0-8 4-12 2-20-6-1-17 2-19 1-4-1-2-9-2-12 0-2-1-5 2-5 4 0 19 6 19 0 0-7-4-11-4-17zm24-10h-33c-3 4-1 5 1 9 9 22-8 6-16 8v26c1 8-10 17 8 10 2 0 10-3 11 0 1 2-2 9-3 11-4 8-9 8-14 14-18 21-8 43-13 44-3 1-12-1-13-2-4-2-4-10-16-12-7-1-8 1-13 1-4-6-11-6-21-6-2 0-7-9-20-8-6 1-5 5-10 2-7-4-15-5-22 0-4 3-4 1-10 0-9-3-16 2-21 6-4 5-1 5-9 5l-10 5c-3 3-3 5-5 9-2 5-4 4-8 7-7 5-6 10-6 21-18 11-8 20-7 26 2 5-4 7-4 14s4 10 7 14c3 3-1 11 2 17 2 6 8 8 9 11 3 6-1 8 5 16 4 5 8 4 13 7 3 4 1 6 5 12l11 6c6 3 9 15 11 22 2 9 5 16 6 27l3 14c1 5 0 10 2 14 12 0 39-6 54-7l14-1 14-1c13-2 46-1 57-3l53 1 7 1 6-1 14 1c19 0 32 3 53 3l15 1 13 2 13 2 26 4c9 1 6-1 6-7l1-7c-1-9 4-35 7-44 2-6 4-18 10-20 11-3 11-13 14-16 2-3 11-4 15-16 2-6-2-7 5-10 7-4 9-13 8-21-2-6 1-6 3-9 2-2 4-9 3-13-1-3-5-6-3-11 3-9 6-13-2-21-4-4-6-3-6-9 0-7 1-14-10-19-7-3-5 0-7-7-3-10-9-10-18-12-8-2-5-3-9-7-2-2-7-5-10-5-7-1-10 2-13 2l-10-5c-13-4-14 5-23 2-15-4-15 4-21 7-2 1-11-6-22 4-6 5-13-3-21 6-4 4-3 5-10 7-2 0-8 3-12 1-1-5 5-22-10-40l-6-7-7-6-5-8c-2-5-3-5-2-10l19 6V17c-7 0-19 7-21 3-3-5 8-13 5-19l-7-1z" />
    <path
      d="m259 572 1 2 1 2c3-2 4-2 4-6-3-1-2-2-5-2l-1 4zM238 570v4h5l1-3-1-2-2-1-3 2zM296 653v4l2 1c2-1 3-2 3-5h-5zM335 655c0 2 1 4 3 4s2-2 2-4c-2-2-5-3-5 0zM218 573l1 2h3c2-4 1-6-3-6l-1 4zM317 654l1 3c2 0 3 0 3-2 0-3-4-2-4-1z" />
  </symbol>
</svg>